<svg width="102" height="85" viewBox="0 0 102 85" fill="none" xmlns="http://www.w3.org/2000/svg">
<path d="M37.152 54.912C36.704 54.912 36.352 54.848 36.096 54.72C35.52 54.464 35.232 54.336 35.232 54.336C35.232 54.272 35.52 54.048 36.096 53.664C36.544 53.408 37.056 53.312 37.632 53.376C38.272 53.44 38.72 53.44 38.976 53.376C40.512 53.056 42.368 52.608 44.544 52.032C46.72 51.456 49.248 50.304 52.128 48.576L55.872 46.368C56.192 46.176 56.416 46.208 56.544 46.464C56.416 46.528 56.352 46.688 56.352 46.944C56.8 46.944 57.056 46.784 57.12 46.464C57.248 46.08 57.376 45.728 57.504 45.408H57.6L59.712 44.064C60.032 44 60.32 44.032 60.576 44.16C60.896 44.288 61.184 44.256 61.44 44.064C61.312 43.808 61.184 43.648 61.056 43.584C60.928 43.456 60.992 43.296 61.248 43.104L61.632 42.816C62.144 42.496 62.592 42.272 62.976 42.144C63.424 41.952 63.744 41.6 63.936 41.088C65.216 39.936 66.304 38.784 67.2 37.632C68.096 36.48 68.544 35.392 68.544 34.368C68.544 33.28 67.936 32.352 66.72 31.584C65.568 30.752 63.488 30.144 60.48 29.76L59.712 29.664C59.264 29.6 58.848 29.536 58.464 29.472C58.08 29.408 57.696 29.28 57.312 29.088C57.376 29.344 57.248 29.472 56.928 29.472C56.032 29.408 55.136 29.376 54.24 29.376C53.344 29.312 52.48 29.28 51.648 29.28C50.24 29.28 48.928 29.312 47.712 29.376C46.56 29.44 45.728 29.504 45.216 29.568L42.048 29.952C41.664 29.824 41.28 29.888 40.896 30.144H40.8C40.352 30.144 39.904 30.208 39.456 30.336C39.008 30.4 38.528 30.496 38.016 30.624C37.76 30.688 37.472 30.752 37.152 30.816C36.832 30.816 36.512 30.88 36.192 31.008L34.272 31.392C33.824 31.712 33.248 31.872 32.544 31.872H32.448L30.624 32.352H30.528C30.272 32.352 30.048 32.224 29.856 31.968C29.664 31.648 29.536 31.36 29.472 31.104C29.408 31.488 29.312 31.904 29.184 32.352C29.056 32.8 28.832 33.024 28.512 33.024L25.824 33.888C25.568 33.952 25.28 33.984 24.96 33.984C24.64 33.984 24.32 33.984 24 33.984C23.68 33.984 23.424 34.016 23.232 34.08C23.04 34.144 22.912 34.304 22.848 34.56C22.848 34.752 22.752 34.912 22.56 35.04C22.304 35.296 21.984 35.488 21.6 35.616C21.216 35.68 20.864 35.776 20.544 35.904H20.448C20.32 35.904 20.128 35.84 19.872 35.712C19.68 35.584 19.52 35.552 19.392 35.616C19.328 35.68 19.264 35.84 19.2 36.096C19.136 36.352 19.04 36.512 18.912 36.576V36.672C18.528 36.8 18.112 36.96 17.664 37.152C17.216 37.344 16.8 37.536 16.416 37.728C16.032 37.92 15.584 38.144 15.072 38.4C14.624 38.592 14.24 38.72 13.92 38.784C13.792 38.784 13.728 38.656 13.728 38.4C13.792 38.144 13.76 38.08 13.632 38.208C13.248 38.4 12.864 38.752 12.48 39.264C12.096 39.776 11.744 40.128 11.424 40.32C11.104 40.576 10.752 40.704 10.368 40.704C10.048 40.704 9.728 40.832 9.408 41.088C9.216 41.28 9.024 41.6 8.832 42.048C8.704 42.432 8.544 42.72 8.352 42.912C7.84 43.424 7.328 44.032 6.816 44.736C6.752 44.864 6.656 44.992 6.528 45.12C6.4 45.248 6.336 45.408 6.336 45.6H6.24C5.856 46.368 5.664 47.104 5.664 47.808C5.664 49.216 6.176 50.24 7.2 50.88C8.288 51.52 9.504 52 10.848 52.32C11.104 52.384 11.328 52.48 11.52 52.608C11.776 52.736 12.032 52.768 12.288 52.704C12.544 52.576 12.768 52.512 12.96 52.512C13.28 52.512 13.536 52.64 13.728 52.896L15.168 53.184C15.936 53.376 16.32 53.568 16.32 53.76C16.32 53.888 16.128 54.016 15.744 54.144C15.424 54.208 15.104 54.24 14.784 54.24C13.632 54.24 12.224 54.016 10.56 53.568C8.896 53.056 7.392 52.32 6.048 51.36C4.704 50.4 3.936 49.152 3.744 47.616C3.744 47.552 3.648 47.392 3.456 47.136C3.328 46.88 3.232 46.656 3.168 46.464C2.976 45.888 2.88 45.312 2.88 44.736C2.88 43.648 3.104 42.624 3.552 41.664C4.064 40.704 4.736 39.808 5.568 38.976C5.888 38.656 6.176 38.432 6.432 38.304C6.752 38.176 7.104 37.984 7.488 37.728C7.872 37.472 8.064 37.248 8.064 37.056C8.064 36.864 8.256 36.64 8.64 36.384C9.152 36.064 9.856 35.68 10.752 35.232C11.712 34.784 12.448 34.432 12.96 34.176C13.344 34.176 13.696 34.016 14.016 33.696C15.296 33.12 16.64 32.608 18.048 32.16C19.456 31.648 20.864 31.168 22.272 30.72C22.528 30.656 22.752 30.592 22.944 30.528C23.136 30.464 23.328 30.432 23.52 30.432C23.776 30.432 24.032 30.528 24.288 30.72C24.288 30.592 24.256 30.496 24.192 30.432C24.192 30.304 24.256 30.208 24.384 30.144C25.984 29.632 27.552 29.152 29.088 28.704C30.688 28.192 32.256 27.936 33.792 27.936H33.888C34.016 27.936 34.144 27.904 34.272 27.84C34.464 27.776 34.624 27.744 34.752 27.744H34.848L35.52 27.648C35.904 27.84 36.288 27.776 36.672 27.456C38.4 27.136 40 26.912 41.472 26.784C42.944 26.592 44.192 26.496 45.216 26.496H45.6C45.92 26.496 46.176 26.464 46.368 26.4H47.328C47.52 26.336 47.712 26.336 47.904 26.4C48.16 26.4 48.352 26.4 48.48 26.4H48.576C49.344 26.4 50.144 26.432 50.976 26.496C51.872 26.496 52.768 26.496 53.664 26.496H53.76C54.016 26.496 54.208 26.592 54.336 26.784C54.528 26.912 54.752 26.848 55.008 26.592C56.736 26.656 58.464 26.848 60.192 27.168C61.472 27.36 62.944 27.744 64.608 28.32C66.336 28.896 67.84 29.792 69.12 31.008C70.4 32.16 71.04 33.792 71.04 35.904C71.04 36.928 70.912 37.856 70.656 38.688C70.464 39.456 70.08 40.16 69.504 40.8C68.992 41.44 68.384 42.08 67.68 42.72C67.488 42.912 67.296 43.136 67.104 43.392C66.912 43.648 66.688 43.872 66.432 44.064C66.368 44.128 66.24 44.192 66.048 44.256C65.92 44.256 65.792 44.288 65.664 44.352C65.536 44.48 65.408 44.576 65.28 44.64C65.152 44.704 64.992 44.8 64.8 44.928C62.688 46.336 60.864 47.392 59.328 48.096C57.856 48.736 55.904 49.472 53.472 50.304C52.704 50.56 52.16 50.72 51.84 50.784C51.52 50.784 51.264 50.848 51.072 50.976C49.472 51.424 47.648 52.064 45.6 52.896C43.552 53.728 41.792 54.272 40.32 54.528C40.192 54.592 39.776 54.688 39.072 54.816C38.432 54.88 37.792 54.912 37.152 54.912ZM65.856 83.616C65.792 83.616 65.568 83.616 65.184 83.616C64.8 83.616 64.576 83.584 64.512 83.52C64.256 83.392 64.16 83.2 64.224 82.944C64.288 82.688 64.192 82.56 63.936 82.56C63.68 82.56 63.52 82.656 63.456 82.848C63.392 83.104 63.2 83.232 62.88 83.232H62.784C62.464 83.232 62.176 83.072 61.92 82.752C61.728 82.432 61.504 82.336 61.248 82.464C60.864 82.656 60.544 82.752 60.288 82.752C59.84 82.752 59.488 82.592 59.232 82.272C58.976 81.952 58.624 81.664 58.176 81.408C58.112 81.408 57.984 81.44 57.792 81.504C57.664 81.568 57.536 81.568 57.408 81.504C57.344 81.44 56.832 81.152 55.872 80.64C54.912 80.192 53.952 79.712 52.992 79.2C52.032 78.688 51.456 78.368 51.264 78.24C51.072 77.792 50.88 77.536 50.688 77.472C50.56 77.408 50.272 77.376 49.824 77.376C49.568 77.184 49.216 76.96 48.768 76.704C48.384 76.512 48.128 76.256 48 75.936C47.168 75.616 46.432 75.232 45.792 74.784C45.152 74.336 44.48 73.824 43.776 73.248C43.648 73.12 43.488 73.024 43.296 72.96C43.104 72.896 42.944 72.8 42.816 72.672L40.224 70.752C40.096 70.368 39.616 69.952 38.784 69.504C37.952 68.992 37.376 68.512 37.056 68.064C36.992 68 36.96 67.936 36.96 67.872C36.96 67.552 36.8 67.392 36.48 67.392C36.288 67.392 36.096 67.392 35.904 67.392C35.712 67.392 35.616 67.264 35.616 67.008C35.424 66.56 34.944 66.048 34.176 65.472C33.408 64.832 32.704 64.192 32.064 63.552C31.424 62.912 31.2 62.368 31.392 61.92C31.136 61.856 30.88 61.824 30.624 61.824C30.368 61.824 30.176 61.728 30.048 61.536C29.792 61.024 29.472 60.608 29.088 60.288C28.896 60.16 28.704 59.968 28.512 59.712L28.032 60.672C27.776 61.056 27.52 61.504 27.264 62.016C27.008 62.528 26.72 63.072 26.4 63.648L25.536 65.376C25.472 65.568 25.376 65.664 25.248 65.664C25.184 65.6 25.088 65.568 24.96 65.568C25.088 65.824 25.152 66.048 25.152 66.24C25.152 66.752 24.864 67.296 24.288 67.872C23.456 69.792 22.688 71.616 21.984 73.344C21.28 75.072 20.736 76.672 20.352 78.144C20.224 78.656 20.032 78.912 19.776 78.912C19.328 78.912 19.104 78.432 19.104 77.472C19.104 76.576 19.456 75.168 20.16 73.248L20.064 73.344C20 73.344 19.776 73.408 19.392 73.536C19.008 73.664 18.752 73.696 18.624 73.632C17.792 73.632 17.376 73.344 17.376 72.768C17.376 71.232 17.696 69.632 18.336 67.968L20.832 61.44C20.96 61.248 21.024 61.056 21.024 60.864C21.088 60.672 21.152 60.48 21.216 60.288L21.312 60.192V60.096L21.696 58.08C21.824 57.504 21.888 56.992 21.888 56.544C21.952 56.096 21.984 55.552 21.984 54.912C21.984 54.72 22.08 54.592 22.272 54.528C22.272 54.08 22.304 53.664 22.368 53.28C22.432 52.832 22.464 52.384 22.464 51.936V51.456C22.4 51.392 22.368 51.264 22.368 51.072C22.368 50.944 22.336 50.816 22.272 50.688C22.272 50.56 22.272 50.432 22.272 50.304C22.272 50.24 22.272 50.208 22.272 50.208C22.336 50.144 22.368 50.08 22.368 50.016C22.496 49.248 22.72 48.544 23.04 47.904C23.424 47.264 23.84 47.104 24.288 47.424C24.416 47.488 24.64 47.872 24.96 48.576C25.344 49.28 25.664 49.792 25.92 50.112C26.176 50.752 26.496 51.36 26.88 51.936C27.264 52.448 27.584 53.024 27.84 53.664C28.032 53.984 28.128 54.24 28.128 54.432C28.128 54.56 28.352 54.688 28.8 54.816C30.656 51.488 32.512 48.32 34.368 45.312C36.288 42.24 38.08 39.872 39.744 38.208L40.032 38.016L40.32 37.536C40.32 37.536 40.384 37.504 40.512 37.44C40.64 37.376 40.736 37.408 40.8 37.536C40.8 37.6 40.736 37.728 40.608 37.92C40.544 38.112 40.512 38.24 40.512 38.304C40.704 38.624 40.928 38.656 41.184 38.4C41.248 38.272 41.248 37.984 41.184 37.536C41.12 37.088 41.12 36.864 41.184 36.864C41.312 36.8 41.376 36.8 41.376 36.864C41.44 36.928 41.504 36.96 41.568 36.96C41.696 36.96 41.76 36.864 41.76 36.672C41.76 36.48 41.792 36.352 41.856 36.288C42.56 36.032 43.2 35.904 43.776 35.904C44.096 35.904 44.544 36.064 45.12 36.384C45.76 36.704 46.08 37.152 46.08 37.728C46.08 38.048 45.92 38.432 45.6 38.88C45.536 38.944 45.472 39.072 45.408 39.264C45.344 39.392 45.248 39.52 45.12 39.648C45.056 39.712 44.992 39.744 44.928 39.744C44.928 39.68 44.864 39.68 44.736 39.744C44.672 39.808 44.576 39.84 44.448 39.84C44.384 39.776 44.288 39.744 44.16 39.744C44.032 39.744 44 39.84 44.064 40.032C44.192 40.224 44.224 40.352 44.16 40.416C44.096 40.48 44.032 40.48 43.968 40.416C43.904 40.352 43.808 40.384 43.68 40.512C43.616 40.576 43.648 40.64 43.776 40.704C43.968 40.704 44 40.768 43.872 40.896C43.488 41.28 43.008 41.696 42.432 42.144C41.92 42.528 41.408 42.912 40.896 43.296C40.832 43.36 40.768 43.36 40.704 43.296C40.64 43.168 40.576 43.136 40.512 43.2L39.84 44.16C39.2 44.8 38.56 45.472 37.92 46.176C37.28 46.88 36.608 47.68 35.904 48.576C35.712 48.96 35.488 49.312 35.232 49.632C34.976 49.952 34.624 50.08 34.176 50.016C34.176 50.08 34.24 50.176 34.368 50.304C34.496 50.368 34.496 50.496 34.368 50.688C32.96 52.608 31.648 54.592 30.432 56.64L32.448 59.136C32.64 59.392 32.736 59.68 32.736 60C32.736 60.256 32.8 60.416 32.928 60.48C33.056 60.48 33.152 60.448 33.216 60.384C33.344 60.32 33.44 60.288 33.504 60.288C33.696 60.288 33.856 60.448 33.984 60.768C34.176 61.024 34.368 61.248 34.56 61.44C34.816 61.696 35.072 61.952 35.328 62.208C35.648 62.464 35.968 62.752 36.288 63.072V63.168C36.544 63.36 36.96 63.712 37.536 64.224C38.112 64.736 38.656 65.248 39.168 65.76C39.68 66.208 39.968 66.56 40.032 66.816C40.16 67.072 40.352 67.232 40.608 67.296C40.864 67.36 41.088 67.456 41.28 67.584C41.792 67.968 42.304 68.352 42.816 68.736C43.392 69.12 43.936 69.536 44.448 69.984C44.64 70.112 44.704 70.24 44.64 70.368C44.64 70.496 44.672 70.624 44.736 70.752C44.864 70.816 45.088 70.912 45.408 71.04C45.792 71.104 46.08 71.2 46.272 71.328C47.744 72.288 49.216 73.216 50.688 74.112C52.16 75.072 53.696 75.968 55.296 76.8C56.96 77.632 58.656 78.368 60.384 79.008C62.112 79.648 63.936 79.968 65.856 79.968C67.392 79.968 68.864 79.68 70.272 79.104C71.744 78.528 72.48 77.472 72.48 75.936C72.48 75.424 72.384 74.88 72.192 74.304C72.128 73.984 72 73.632 71.808 73.248C71.68 72.864 71.456 72.576 71.136 72.384C70.944 72 70.592 71.744 70.08 71.616C69.76 71.296 69.472 70.976 69.216 70.656C68.96 70.272 68.576 70.112 68.064 70.176C67.872 69.984 67.776 69.792 67.776 69.6C67.776 69.344 67.872 69.152 68.064 69.024C68.32 68.832 68.608 68.8 68.928 68.928C69.376 69.184 69.728 69.536 69.984 69.984C70.304 70.368 70.72 70.592 71.232 70.656L71.712 71.136C71.904 71.456 72.096 71.712 72.288 71.904C72.544 72.096 72.768 72.352 72.96 72.672C73.152 72.928 73.344 73.28 73.536 73.728C73.792 74.24 73.952 74.656 74.016 74.976C74.144 75.232 74.176 75.488 74.112 75.744C74.112 76 74.208 76.288 74.4 76.608C74.528 78.592 73.888 80.192 72.48 81.408C71.072 82.688 69.44 83.392 67.584 83.52C67.392 83.392 67.2 83.296 67.008 83.232C66.88 83.168 66.752 83.136 66.624 83.136C66.432 83.136 66.176 83.296 65.856 83.616ZM21.408 70.176C21.536 70.24 21.6 70.24 21.6 70.176C21.664 70.048 21.696 69.984 21.696 69.984C21.824 69.792 21.888 69.6 21.888 69.408C21.888 69.152 21.92 68.928 21.984 68.736C23.136 65.856 24.608 62.72 26.4 59.328C26.528 59.072 26.656 59.008 26.784 59.136C26.976 59.2 27.104 59.168 27.168 59.04C27.296 58.912 27.328 58.752 27.264 58.56C27.264 58.368 27.264 58.208 27.264 58.08C27.2 57.952 27.104 57.856 26.976 57.792C26.848 57.728 26.752 57.632 26.688 57.504C26.432 56.8 26.08 56.352 25.632 56.16C25.248 55.904 24.96 55.52 24.768 55.008C24.512 54.432 24.256 54.016 24 53.76C23.808 53.44 23.552 53.056 23.232 52.608L22.944 55.872C22.88 56.512 22.784 57.248 22.656 58.08C22.592 58.912 22.432 59.68 22.176 60.384C22.112 60.576 22.08 60.864 22.08 61.248V62.304C22.08 62.432 22.048 62.592 21.984 62.784C21.984 62.976 21.984 63.168 21.984 63.36L21.792 65.28C21.728 65.92 21.632 66.592 21.504 67.296C21.376 67.936 21.312 68.544 21.312 69.12C21.312 69.632 21.344 69.984 21.408 70.176Z" fill="#B70404"/>
<path d="M37.24 62.04C36.9067 62.04 36.6133 61.9467 36.36 61.76C36.1067 61.5733 35.98 61.2533 35.98 60.8C35.98 60.6267 36 60.4533 36.04 60.28C36.08 60.0933 36.1267 59.9133 36.18 59.74C36.2067 59.5667 36.2467 59.4133 36.3 59.28C36.3133 59.2267 36.32 59.2 36.32 59.2C36.3333 59.1867 36.3667 59.1667 36.42 59.14L36.58 58.9V58.82C36.5667 58.82 36.56 58.82 36.56 58.82C36.56 58.8067 36.56 58.8 36.56 58.8C36.56 58.76 36.5933 58.7133 36.66 58.66C36.7267 58.6067 36.76 58.58 36.76 58.58C36.7733 58.5133 36.7933 58.48 36.82 58.48C36.8467 58.48 36.88 58.46 36.92 58.42H37.14V58.38C37.14 58.3133 37.1067 58.2867 37.04 58.3C36.9867 58.3 36.96 58.2933 36.96 58.28C36.96 58.2667 36.98 58.24 37.02 58.2C37.0733 58.1467 37.1067 58.1133 37.12 58.1C37.16 58.0467 37.1933 58 37.22 57.96C37.2467 57.9067 37.2867 57.8667 37.34 57.84C37.58 57.5467 37.7267 57.36 37.78 57.28C37.8467 57.2 37.9133 57.14 37.98 57.1C38.0067 57.1 38.0267 57.1133 38.04 57.14C38.0667 57.1533 38.0667 57.1733 38.04 57.2C38.0667 57.24 38.0867 57.2467 38.1 57.22C38.1267 57.1933 38.14 57.18 38.14 57.18L38.22 57.14C38.1933 57.1133 38.18 57.08 38.18 57.04C38.18 56.9733 38.1933 56.92 38.22 56.88C38.2467 56.8267 38.2933 56.7733 38.36 56.72C38.44 56.6667 38.48 56.6333 38.48 56.62C38.56 56.5933 38.62 56.5667 38.66 56.54C38.7133 56.5133 38.7667 56.5 38.82 56.5C38.9133 56.5 39.0067 56.5333 39.1 56.6C39.3533 56.7333 39.5667 56.8667 39.74 57C39.9133 57.1333 40 57.32 40 57.56C40 57.8133 39.8933 58.0333 39.68 58.22C39.48 58.3933 39.2333 58.54 38.94 58.66C38.6467 58.78 38.3533 58.88 38.06 58.96C37.78 59.0267 37.56 59.08 37.4 59.12C37.3067 59.1333 37.26 59.1733 37.26 59.24C37.2733 59.2933 37.2667 59.3533 37.24 59.42L37.1 59.64L36.98 59.92L36.88 60.1C36.7867 60.18 36.7533 60.24 36.78 60.28C36.8067 60.32 36.8533 60.3133 36.92 60.26C36.9333 60.2733 36.94 60.2933 36.94 60.32C36.94 60.3733 36.9267 60.44 36.9 60.52C36.8733 60.5867 36.8533 60.64 36.84 60.68C36.8267 60.7333 36.8267 60.76 36.84 60.76C36.8667 60.7467 36.88 60.7733 36.88 60.84L36.9 61.12C36.98 61.3733 37.16 61.52 37.44 61.56C37.4667 61.56 37.4933 61.5667 37.52 61.58C37.56 61.58 37.5933 61.58 37.62 61.58C37.86 61.58 37.9867 61.56 38 61.52C38.0267 61.48 38.06 61.4533 38.1 61.44C38.22 61.4133 38.32 61.3867 38.4 61.36C38.4933 61.3333 38.5867 61.2933 38.68 61.24C38.84 61.1733 38.9933 61.0867 39.14 60.98C39.2867 60.8733 39.44 60.7667 39.6 60.66L39.8 60.52C39.8133 60.4933 39.8133 60.4733 39.8 60.46C39.7867 60.4467 39.7867 60.4333 39.8 60.42C39.8267 60.4067 39.8467 60.4067 39.86 60.42C39.8867 60.42 39.9067 60.4133 39.92 60.4C39.9467 60.3867 39.9733 60.3667 40 60.34C40.0267 60.3 40.0533 60.2667 40.08 60.24C40.1067 60.2133 40.12 60.1867 40.12 60.16C40.1333 60.1333 40.1533 60.1067 40.18 60.08C40.2867 59.9733 40.3933 59.86 40.5 59.74C40.62 59.62 40.72 59.5133 40.8 59.42C40.8933 59.2867 40.9667 59.22 41.02 59.22C41.0467 59.22 41.06 59.2333 41.06 59.26C41.06 59.3267 41.0133 59.4267 40.92 59.56C40.6933 59.8933 40.4333 60.22 40.14 60.54C39.8467 60.8467 39.5267 61.1267 39.18 61.38C38.9267 61.5533 38.6267 61.7067 38.28 61.84C37.9333 61.9733 37.5867 62.04 37.24 62.04ZM37.54 58.82C37.74 58.8067 38 58.7533 38.32 58.66C38.64 58.5533 38.9067 58.4133 39.12 58.24C39.3467 58.0533 39.46 57.8467 39.46 57.62C39.46 57.4067 39.3467 57.2 39.12 57C38.9333 57.1333 38.7267 57.3267 38.5 57.58C38.2867 57.82 38.0933 58.06 37.92 58.3C37.7467 58.5267 37.62 58.7 37.54 58.82ZM40.5536 62.06C40.4736 62.06 40.4336 62.0133 40.4336 61.92C40.4336 61.8533 40.4536 61.7733 40.4936 61.68C40.6003 61.4533 40.7269 61.1333 40.8736 60.72C41.0203 60.3067 41.2003 59.9533 41.4136 59.66L42.1936 57.92C42.1936 57.92 42.1803 57.9133 42.1536 57.9C42.1269 57.8733 42.1136 57.8467 42.1136 57.82C42.0336 57.7667 41.9469 57.6933 41.8536 57.6C41.7736 57.4933 41.7669 57.3867 41.8336 57.28C41.8603 57.2533 41.8803 57.24 41.8936 57.24C41.9069 57.24 41.9136 57.24 41.9136 57.24V57.2C41.9136 57.1467 41.9336 57.1133 41.9736 57.1C42.0269 57.0867 42.0603 57.0667 42.0736 57.04C42.1003 56.8533 42.2536 56.7133 42.5336 56.62C42.8269 56.5267 43.0869 56.48 43.3136 56.48C43.5403 56.48 43.6536 56.5133 43.6536 56.58C43.6536 56.62 43.6136 56.6667 43.5336 56.72C43.5069 56.7467 43.4403 56.8067 43.3336 56.9C43.2403 56.9933 43.1536 57.1067 43.0736 57.24L42.9336 57.48L42.7936 57.66C42.5803 58.0467 42.4069 58.3733 42.2736 58.64C42.1403 58.9067 41.9803 59.2467 41.7936 59.66C41.7536 59.74 41.7336 59.8067 41.7336 59.86C41.7336 59.9267 41.7603 59.96 41.8136 59.96C41.8403 59.96 41.8669 59.9533 41.8936 59.94C41.9336 59.9133 41.9736 59.8933 42.0136 59.88C42.1203 59.8133 42.2069 59.7533 42.2736 59.7C42.3536 59.6333 42.4403 59.5667 42.5336 59.5C42.5736 59.46 42.6069 59.46 42.6336 59.5C42.6603 59.5267 42.6603 59.5667 42.6336 59.62C42.5803 59.7267 42.5403 59.7933 42.5136 59.82C42.5003 59.8333 42.4803 59.8467 42.4536 59.86C42.4269 59.8733 42.3669 59.9333 42.2736 60.04L42.1936 60.2C42.1669 60.2267 42.1336 60.28 42.0936 60.36C42.0669 60.4267 42.0536 60.4667 42.0536 60.48C42.0536 60.5067 42.0403 60.52 42.0136 60.52C41.9869 60.5067 41.9469 60.5267 41.8936 60.58C41.8803 60.5933 41.8736 60.62 41.8736 60.66C41.8869 60.7 41.8803 60.7333 41.8536 60.76C41.8403 60.8 41.8203 60.8333 41.7936 60.86C41.7669 60.8733 41.7536 60.8867 41.7536 60.9C41.7403 60.9533 41.7136 60.9867 41.6736 61C41.6469 61 41.6203 61.0133 41.5936 61.04C41.5803 61.04 41.5736 61.0533 41.5736 61.08C41.5736 61.1867 41.5603 61.2333 41.5336 61.22C41.5069 61.2067 41.4803 61.22 41.4536 61.26C41.4269 61.3133 41.3936 61.34 41.3536 61.34C41.2736 61.3667 41.2403 61.3867 41.2536 61.4C41.2669 61.4133 41.2869 61.4267 41.3136 61.44C41.3403 61.44 41.3203 61.46 41.2536 61.5C41.2136 61.5133 41.1803 61.5533 41.1536 61.62C41.1269 61.6733 41.1003 61.7133 41.0736 61.74C41.0469 61.7667 41.0136 61.7867 40.9736 61.8C40.9336 61.8133 40.9003 61.84 40.8736 61.88C40.7536 62 40.6469 62.06 40.5536 62.06ZM46.5136 61.9C46.4603 61.9 46.4136 61.9 46.3736 61.9C46.3336 61.8867 46.2936 61.8733 46.2536 61.86C46.1203 61.8333 46.0003 61.7933 45.8936 61.74C45.8003 61.6867 45.7203 61.5867 45.6536 61.44C45.6403 61.3733 45.6069 61.2867 45.5536 61.18C45.5136 61.0733 45.4869 60.9733 45.4736 60.88C45.4603 60.8133 45.4536 60.7333 45.4536 60.64C45.4403 60.5733 45.4336 60.4867 45.4336 60.38C45.4069 60.2467 45.3936 60.1267 45.3936 60.02C45.4069 59.9133 45.4136 59.7867 45.4136 59.64C45.4136 59.4933 45.4203 59.3867 45.4336 59.32C45.4603 59.2 45.4736 59.14 45.4736 59.14C45.4736 59.1267 45.4736 59.06 45.4736 58.94C45.4869 58.78 45.4936 58.6133 45.4936 58.44C45.4936 58.2667 45.5003 58.1267 45.5136 58.02C45.5536 57.62 45.4736 57.42 45.2736 57.42C45.1936 57.42 45.0869 57.4533 44.9536 57.52C44.9403 57.56 44.9136 57.5867 44.8736 57.6C44.8469 57.6 44.8069 57.6133 44.7536 57.64L44.6536 57.7C44.6536 57.7133 44.6403 57.72 44.6136 57.72C44.5869 57.7067 44.5736 57.7133 44.5736 57.74C44.5869 57.7933 44.5803 57.8267 44.5536 57.84C44.5403 57.8533 44.5203 57.8467 44.4936 57.82L44.2736 57.98C44.2736 57.9933 44.2536 58.02 44.2136 58.06L44.1936 58.08C44.1403 58.1333 44.0936 58.16 44.0536 58.16L43.9936 58.22C43.9936 58.2333 43.9803 58.26 43.9536 58.3C43.9403 58.3267 43.9069 58.3333 43.8536 58.32L43.7536 58.42C43.7003 58.5 43.6536 58.5467 43.6136 58.56C43.5869 58.5733 43.5536 58.5867 43.5136 58.6L43.3536 58.8L43.2736 58.82C43.2736 58.8733 43.2136 58.9533 43.0936 59.06C42.9869 59.1667 42.9136 59.24 42.8736 59.28C42.8336 59.32 42.7936 59.34 42.7536 59.34C42.7269 59.34 42.7136 59.3267 42.7136 59.3C42.7136 59.2867 42.7469 59.2333 42.8136 59.14C42.8669 59.0867 42.9469 58.9867 43.0536 58.84C43.1736 58.6933 43.2403 58.6267 43.2536 58.64C43.3203 58.5733 43.3669 58.5067 43.3936 58.44C43.4203 58.36 43.4669 58.2933 43.5336 58.24C43.5336 58.2533 43.5336 58.2667 43.5336 58.28C43.5469 58.28 43.5536 58.28 43.5536 58.28C43.5803 58.28 43.6136 58.2467 43.6536 58.18C43.6936 58.1 43.7203 58.0667 43.7336 58.08L44.0736 57.78C44.0736 57.7667 44.1069 57.74 44.1736 57.7C44.2269 57.6733 44.2603 57.66 44.2736 57.66C44.2869 57.66 44.3203 57.62 44.3736 57.54L44.5136 57.44C44.5269 57.4133 44.5403 57.42 44.5536 57.46C44.5803 57.4867 44.6003 57.4933 44.6136 57.48L44.6736 57.34C44.7003 57.3 44.7403 57.2667 44.7936 57.24C44.8603 57.2 44.9269 57.16 44.9936 57.12C45.1536 56.96 45.2736 56.88 45.3536 56.88H45.4336C45.6069 56.8133 45.7669 56.78 45.9136 56.78C46.1269 56.78 46.2936 56.86 46.4136 57.02C46.4403 57.06 46.4669 57.1333 46.4936 57.24C46.5203 57.2533 46.5269 57.2733 46.5136 57.3C46.5136 57.3133 46.5203 57.3333 46.5336 57.36C46.5469 57.3867 46.5736 57.42 46.6136 57.46C46.6536 57.4867 46.6736 57.52 46.6736 57.56V57.6C46.6736 57.6533 46.6403 57.7 46.5736 57.74C46.6403 57.7933 46.6669 57.8267 46.6536 57.84C46.6536 57.84 46.6469 57.86 46.6336 57.9L46.5936 58.18C46.5803 58.2733 46.5603 58.3467 46.5336 58.4C46.5069 58.44 46.4803 58.5133 46.4536 58.62C46.5069 58.7 46.5069 58.7533 46.4536 58.78H46.4136L46.3936 58.86C46.3936 58.8867 46.4069 58.9133 46.4336 58.94L46.3736 59.06C46.3869 59.0467 46.3936 59.0467 46.3936 59.06C46.4069 59.06 46.4136 59.06 46.4136 59.06C46.4003 59.0867 46.3803 59.14 46.3536 59.22C46.3269 59.2867 46.3069 59.34 46.2936 59.38C46.2803 59.4467 46.2536 59.48 46.2136 59.48C46.1736 59.48 46.1603 59.5133 46.1736 59.58C46.1869 59.5933 46.1936 59.64 46.1936 59.72C46.2069 59.7867 46.2003 59.82 46.1736 59.82L46.1336 60.06V60.12C46.1336 60.1867 46.1203 60.2533 46.0936 60.32C46.0803 60.3867 46.0669 60.4533 46.0536 60.52C46.0403 60.5867 46.0269 60.66 46.0136 60.74C46.0136 60.8067 46.0136 60.8733 46.0136 60.94C46.0136 60.9933 46.0136 61.0533 46.0136 61.12C46.0269 61.1733 46.0403 61.2267 46.0536 61.28C46.0536 61.2933 46.0736 61.3333 46.1136 61.4C46.1536 61.4667 46.1736 61.5067 46.1736 61.52L46.2336 61.58C46.2603 61.5933 46.3003 61.5933 46.3536 61.58C46.4203 61.5667 46.4669 61.5733 46.4936 61.6C46.6136 61.6133 46.7669 61.5533 46.9536 61.42C47.1536 61.2733 47.3336 61.1133 47.4936 60.94C47.5336 60.9 47.5736 60.88 47.6136 60.88C47.6403 60.88 47.6603 60.9 47.6736 60.94C47.6869 60.98 47.6736 61.0333 47.6336 61.1C47.4203 61.4067 47.2203 61.62 47.0336 61.74C46.8469 61.8467 46.6736 61.9 46.5136 61.9ZM48.7345 62.06C48.6545 62.06 48.6145 62.0133 48.6145 61.92C48.6145 61.8533 48.6345 61.7733 48.6745 61.68C48.7812 61.4533 48.9012 61.1333 49.0345 60.72C49.1812 60.3067 49.3612 59.9533 49.5745 59.66L50.5745 57.6C50.4945 57.6 50.4145 57.62 50.3345 57.66C50.2679 57.7 50.2345 57.7333 50.2345 57.76C50.2345 57.8133 50.1612 57.8667 50.0145 57.92C49.8679 57.9733 49.7879 58.0067 49.7745 58.02C49.5745 58.0733 49.3879 58.1333 49.2145 58.2C49.0812 58.3467 48.9479 58.4933 48.8145 58.64C48.6945 58.7867 48.5812 58.9333 48.4745 59.08C48.4612 59.0933 48.4479 59.1 48.4345 59.1C48.3145 59.2333 48.2145 59.3333 48.1345 59.4C48.0545 59.4667 47.9679 59.5267 47.8745 59.58C47.8212 59.62 47.7679 59.6333 47.7145 59.62C47.6479 59.5933 47.6412 59.5667 47.6945 59.54C47.7612 59.5133 47.8679 59.42 48.0145 59.26C48.1612 59.1 48.2745 58.98 48.3545 58.9C48.4212 58.86 48.4412 58.86 48.4145 58.9C48.4012 58.94 48.4212 58.9333 48.4745 58.88L48.9745 58.24L48.9945 58.22C48.9279 58.18 48.8945 58.0733 48.8945 57.9C48.8945 57.7667 48.9212 57.66 48.9745 57.58C48.9745 57.5667 48.9879 57.56 49.0145 57.56L49.4345 57.44C49.4745 57.44 49.5012 57.4333 49.5145 57.42C49.5412 57.3933 49.5679 57.36 49.5945 57.32C49.6345 57.2667 49.6812 57.2 49.7345 57.12L49.9745 56.8L50.1345 56.58C50.1345 56.54 50.1612 56.4933 50.2145 56.44C50.2812 56.3733 50.3345 56.3267 50.3745 56.3C50.4279 56.22 50.4612 56.16 50.4745 56.12C50.5012 56.0667 50.5412 56 50.5945 55.92C50.5945 55.9067 50.6145 55.9 50.6545 55.9C50.6945 55.8867 50.7145 55.8733 50.7145 55.86C50.7279 55.7267 50.7479 55.6667 50.7745 55.68C50.8145 55.68 50.8345 55.66 50.8345 55.62C50.8345 55.58 50.8612 55.5467 50.9145 55.52L51.0145 55.4C51.0145 55.3867 51.0345 55.36 51.0745 55.32V55.3C51.0745 55.2733 51.0745 55.24 51.0745 55.2C51.0745 55.16 51.0879 55.12 51.1145 55.08C51.1412 55.0533 51.1612 55.04 51.1745 55.04C51.1879 55.04 51.1945 55.04 51.1945 55.04C51.1945 55.0267 51.1879 55.02 51.1745 55.02C51.1745 55.0067 51.1745 55 51.1745 55C51.1745 54.9467 51.2012 54.9133 51.2545 54.9C51.3079 54.8867 51.3345 54.8667 51.3345 54.84C51.3612 54.6533 51.5212 54.5133 51.8145 54.42C52.1079 54.3267 52.3679 54.28 52.5945 54.28C52.8212 54.28 52.9345 54.3133 52.9345 54.38C52.9345 54.4067 52.8945 54.4533 52.8145 54.52C52.7745 54.5333 52.7079 54.5933 52.6145 54.7C52.5212 54.7933 52.4345 54.9067 52.3545 55.04L52.1945 55.28C52.1812 55.3067 52.1612 55.34 52.1345 55.38C52.1212 55.4067 52.1012 55.4333 52.0745 55.46C51.9812 55.62 51.8545 55.8467 51.6945 56.14C51.5479 56.42 51.3879 56.7333 51.2145 57.08L51.7345 57.02C51.7745 57.02 51.7879 57.0267 51.7745 57.04C51.7745 57.0533 51.7945 57.0533 51.8345 57.04C51.9012 57.04 51.9479 57.0333 51.9745 57.02C52.0012 56.9933 52.0479 56.9733 52.1145 56.96C52.2212 56.9467 52.3412 56.94 52.4745 56.94C52.6212 56.9267 52.7345 56.92 52.8145 56.92C52.8679 56.92 52.9345 56.92 53.0145 56.92C53.0945 56.92 53.1545 56.9267 53.1945 56.94C53.2212 56.94 53.2279 56.9533 53.2145 56.98C53.2145 56.9933 53.2212 57 53.2345 57C53.2612 57 53.2812 56.9933 53.2945 56.98C53.3212 56.9667 53.3479 56.96 53.3745 56.96C53.3879 56.9467 53.4079 56.9467 53.4345 56.96C53.4745 56.96 53.5012 56.96 53.5145 56.96L53.7145 57.02C53.7945 57.0333 53.8345 57.08 53.8345 57.16C53.8479 57.24 53.8145 57.2667 53.7345 57.24C53.6812 57.2133 53.6345 57.2 53.5945 57.2H53.0945C53.0012 57.2 52.9145 57.2 52.8345 57.2C52.7545 57.2 52.6745 57.2067 52.5945 57.22C52.5679 57.2333 52.5545 57.22 52.5545 57.18C52.5679 57.14 52.5612 57.12 52.5345 57.12C52.5212 57.12 52.5012 57.14 52.4745 57.18C52.4479 57.2067 52.4279 57.22 52.4145 57.22L52.3145 57.28C52.1012 57.3333 51.8745 57.3933 51.6345 57.46C51.3945 57.5133 51.1612 57.5733 50.9345 57.64C50.7345 58.0533 50.5412 58.4467 50.3545 58.82C50.1812 59.18 50.0479 59.46 49.9545 59.66C49.9279 59.74 49.9145 59.7867 49.9145 59.8C49.9145 59.9067 49.9745 59.96 50.0945 59.96C50.1745 59.96 50.2545 59.94 50.3345 59.9L50.5345 59.82C50.8545 59.5267 51.1879 59.28 51.5345 59.08C51.5479 59.08 51.5545 59.08 51.5545 59.08C51.5679 59.0667 51.5812 59.06 51.5945 59.06C51.6345 59.06 51.6612 59.0867 51.6745 59.14C51.6879 59.18 51.6745 59.2133 51.6345 59.24C51.2479 59.4533 50.8879 59.7267 50.5545 60.06C50.5412 60.0867 50.5279 60.1133 50.5145 60.14C50.5012 60.1667 50.4812 60.1933 50.4545 60.22C50.4279 60.2467 50.3879 60.2933 50.3345 60.36C50.2945 60.4267 50.2745 60.4667 50.2745 60.48C50.2612 60.52 50.2412 60.5333 50.2145 60.52C50.2012 60.5067 50.1612 60.5267 50.0945 60.58C50.0812 60.5933 50.0679 60.62 50.0545 60.66C50.0545 60.7 50.0479 60.7333 50.0345 60.76C50.0079 60.8 49.9812 60.8333 49.9545 60.86C49.9279 60.8733 49.9145 60.8867 49.9145 60.9C49.9012 60.9533 49.8745 60.9867 49.8345 61C49.8079 61 49.7812 61.0133 49.7545 61.04C49.7412 61.04 49.7345 61.0467 49.7345 61.06C49.7345 61.18 49.7212 61.2333 49.6945 61.22C49.6679 61.2067 49.6479 61.22 49.6345 61.26C49.5812 61.3133 49.5412 61.34 49.5145 61.34C49.4345 61.3667 49.4012 61.3867 49.4145 61.4C49.4412 61.4133 49.4612 61.4267 49.4745 61.44C49.5012 61.44 49.4812 61.46 49.4145 61.5C49.3879 61.5133 49.3612 61.5533 49.3345 61.62C49.3079 61.6733 49.2812 61.7133 49.2545 61.74C49.2145 61.7667 49.1745 61.7867 49.1345 61.8C49.0945 61.8133 49.0612 61.84 49.0345 61.88C48.9145 62 48.8145 62.06 48.7345 62.06ZM49.8745 57.36C49.9279 57.3467 49.9745 57.3333 50.0145 57.32C50.0679 57.3067 50.1212 57.2867 50.1745 57.26L50.7745 57.16C50.9345 56.84 51.0745 56.5533 51.1945 56.3C51.3145 56.0333 51.4012 55.84 51.4545 55.72C51.4545 55.72 51.4412 55.7133 51.4145 55.7C51.4012 55.6733 51.3945 55.6467 51.3945 55.62C51.3679 55.6067 51.3345 55.5867 51.2945 55.56C51.2679 55.5333 51.2412 55.5133 51.2145 55.5L51.0345 55.68L50.8145 55.98C50.8145 55.9933 50.7945 56.0067 50.7545 56.02C50.7279 56.02 50.7145 56.0267 50.7145 56.04C50.7145 56.08 50.6945 56.12 50.6545 56.16C50.6279 56.2 50.6012 56.2133 50.5745 56.2L50.4945 56.4C50.4945 56.44 50.4745 56.4733 50.4345 56.5L50.2945 56.68C50.2945 56.6933 50.2879 56.7067 50.2745 56.72C50.2745 56.72 50.2745 56.7333 50.2745 56.76C50.2612 56.7867 50.2412 56.82 50.2145 56.86C50.1879 56.9 50.1545 56.94 50.1145 56.98C50.1012 56.98 50.0945 56.9867 50.0945 57C50.0945 57 50.0879 57 50.0745 57L50.0145 57.12C49.9612 57.1467 49.9279 57.16 49.9145 57.16L49.8945 57.2C49.8945 57.28 49.8879 57.3333 49.8745 57.36ZM56.1258 62.06C56.0458 62.06 56.0058 62.0133 56.0058 61.92C56.0058 61.8533 56.0258 61.7733 56.0658 61.68C56.1724 61.4533 56.2924 61.1333 56.4258 60.72C56.5724 60.3067 56.7524 59.9533 56.9658 59.66C57.1124 59.3667 57.2458 59.08 57.3658 58.8C57.4991 58.5067 57.6258 58.2133 57.7458 57.92C57.7458 57.92 57.7324 57.9133 57.7058 57.9C57.6791 57.8733 57.6658 57.8467 57.6658 57.82C57.5991 57.7667 57.5191 57.6933 57.4258 57.6C57.3324 57.4933 57.3258 57.3867 57.4058 57.28C57.4324 57.2533 57.4458 57.24 57.4458 57.24C57.4591 57.24 57.4658 57.24 57.4658 57.24C57.4658 57.2267 57.4591 57.22 57.4458 57.22C57.4458 57.22 57.4458 57.2133 57.4458 57.2L57.4258 57.18C57.4124 57.18 57.3991 57.18 57.3858 57.18C57.3858 57.1667 57.3791 57.16 57.3658 57.16C57.3124 57.16 57.2524 57.1733 57.1858 57.2C57.1191 57.2133 57.0524 57.22 56.9858 57.22C56.9058 57.22 56.7991 57.2533 56.6658 57.32C56.5324 57.3733 56.4124 57.42 56.3058 57.46C56.2524 57.4733 56.2191 57.48 56.2058 57.48C56.2058 57.4667 56.1791 57.4733 56.1258 57.5C56.1124 57.5133 56.1124 57.4933 56.1258 57.44C56.1524 57.3733 56.1658 57.3267 56.1658 57.3C56.1658 57.2867 56.1591 57.28 56.1458 57.28C56.1191 57.28 56.0658 57.32 55.9858 57.4C55.9058 57.4667 55.8524 57.5067 55.8258 57.52C55.8124 57.5333 55.8058 57.5533 55.8058 57.58C55.8191 57.6067 55.8258 57.6333 55.8258 57.66C55.8258 57.7 55.7924 57.7467 55.7258 57.8C55.6591 57.84 55.6124 57.8733 55.5858 57.9C55.5324 57.94 55.4658 57.9667 55.3858 57.98C55.3191 57.98 55.2524 58.0067 55.1858 58.06C55.1058 58.1133 55.0658 58.1533 55.0658 58.18C55.0791 58.2067 55.0391 58.2533 54.9458 58.32C54.8258 58.4133 54.6591 58.5533 54.4458 58.74C54.2458 58.9267 54.0924 59.0933 53.9858 59.24C53.7324 59.5467 53.4991 59.9 53.2858 60.3C53.0858 60.7 52.9858 61.0133 52.9858 61.24C52.9858 61.4133 53.0591 61.5 53.2058 61.5C53.2324 61.5 53.2591 61.5 53.2858 61.5C53.3124 61.4867 53.3458 61.4733 53.3858 61.46L53.9058 61.16L54.0258 61.14V61.12L54.1058 61.18C54.1191 61.1667 54.1124 61.1467 54.0858 61.12C54.0724 61.08 54.0724 61.06 54.0858 61.06C54.0991 61.06 54.1058 61.0667 54.1058 61.08C54.1191 61.08 54.1324 61.08 54.1458 61.08L54.1858 61.02C54.1858 61.02 54.2058 61.0267 54.2458 61.04C54.2991 61.04 54.3391 61.0267 54.3658 61C54.4058 60.9867 54.4124 60.9667 54.3858 60.94C54.3724 60.9133 54.3524 60.8933 54.3258 60.88L54.4658 60.76C54.4791 60.7333 54.5324 60.7067 54.6258 60.68C54.8524 60.5333 55.0391 60.36 55.1858 60.16C55.3458 59.9467 55.5258 59.7533 55.7258 59.58H55.7458L55.9858 59.34L55.9658 59.28L56.2258 58.98H56.2658C56.2791 58.9533 56.3058 58.92 56.3458 58.88C56.3991 58.84 56.4324 58.8067 56.4458 58.78C56.4724 58.7667 56.5324 58.7 56.6258 58.58C56.7324 58.4467 56.8324 58.34 56.9258 58.26C57.0324 58.18 57.0924 58.14 57.1058 58.14C57.1191 58.14 57.1258 58.1467 57.1258 58.16C57.1258 58.2 57.1058 58.26 57.0658 58.34C57.0391 58.42 57.0124 58.4733 56.9858 58.5C56.8924 58.6467 56.7724 58.8133 56.6258 59C56.4791 59.1733 56.3924 59.28 56.3658 59.32C56.2058 59.4933 56.0124 59.7267 55.7858 60.02C55.5591 60.3 55.3124 60.58 55.0458 60.86C54.7791 61.14 54.5124 61.38 54.2458 61.58C53.9924 61.7667 53.7524 61.86 53.5258 61.86C53.3124 61.86 53.0858 61.7933 52.8458 61.66C52.6058 61.5267 52.4858 61.2733 52.4858 60.9C52.4858 60.78 52.4991 60.6467 52.5258 60.5C52.5658 60.34 52.6258 60.1733 52.7058 60C52.7058 60 52.7191 59.9867 52.7458 59.96C52.7724 59.92 52.7924 59.9067 52.8058 59.92C52.8324 59.88 52.8391 59.84 52.8258 59.8C52.8258 59.7467 52.8258 59.7133 52.8258 59.7L52.8658 59.66C52.8924 59.5133 52.9924 59.38 53.1658 59.26C53.3391 59.14 53.4324 59.0467 53.4458 58.98C53.4591 58.9667 53.4658 58.9467 53.4658 58.92L53.5458 58.66V58.58H53.6258L53.6858 58.5L53.7058 58.46C53.6791 58.4467 53.6858 58.4267 53.7258 58.4C53.7791 58.36 53.8058 58.34 53.8058 58.34C53.8191 58.3133 53.8324 58.2933 53.8458 58.28C53.8724 58.2667 53.8924 58.2533 53.9058 58.24H54.0458C54.0724 58.2 54.0591 58.18 54.0058 58.18C53.9524 58.18 53.9258 58.18 53.9258 58.18C53.9258 58.1667 53.9258 58.16 53.9258 58.16C53.9391 58.1467 53.9458 58.1333 53.9458 58.12L54.1658 57.94C54.2324 57.8867 54.2991 57.84 54.3658 57.8C54.4324 57.76 54.4924 57.7133 54.5458 57.66C54.5858 57.66 54.5924 57.68 54.5658 57.72C54.5791 57.7467 54.5924 57.7467 54.6058 57.72C54.6324 57.6933 54.6458 57.68 54.6458 57.68L54.7458 57.66V57.64C54.7458 57.6133 54.7524 57.5733 54.7658 57.52C54.7791 57.4667 54.7858 57.4333 54.7858 57.42C55.0658 57.2067 55.3591 57.02 55.6658 56.86C55.9724 56.6867 56.2724 56.6 56.5658 56.6C56.9124 56.6 57.2258 56.7333 57.5058 57L57.6058 57.06C57.6191 57.06 57.6258 57.0533 57.6258 57.04C57.6524 56.8533 57.8058 56.7133 58.0858 56.62C58.3791 56.5267 58.6391 56.48 58.8658 56.48C59.1058 56.48 59.2258 56.5133 59.2258 56.58C59.2258 56.6067 59.1858 56.6533 59.1058 56.72C59.0658 56.7467 58.9991 56.8067 58.9058 56.9C58.8124 56.9933 58.7191 57.1067 58.6258 57.24C58.6124 57.28 58.5924 57.32 58.5658 57.36C58.5391 57.4 58.5124 57.44 58.4858 57.48C58.4724 57.5067 58.4524 57.54 58.4258 57.58C58.4124 57.6067 58.3924 57.6333 58.3658 57.66C58.1391 58.0467 57.9591 58.3733 57.8258 58.64C57.6924 58.9067 57.5324 59.2467 57.3458 59.66C57.3191 59.74 57.3058 59.7867 57.3058 59.8C57.3058 59.9067 57.3658 59.96 57.4858 59.96C57.5658 59.96 57.6458 59.94 57.7258 59.9L57.9258 59.82C58.2458 59.5267 58.5791 59.28 58.9258 59.08C58.9391 59.08 58.9458 59.08 58.9458 59.08C58.9591 59.0667 58.9724 59.06 58.9858 59.06C59.0258 59.06 59.0524 59.0867 59.0658 59.14C59.0791 59.18 59.0658 59.2133 59.0258 59.24C58.6391 59.4533 58.2791 59.7267 57.9458 60.06C57.9324 60.0867 57.9191 60.1133 57.9058 60.14C57.8924 60.1667 57.8724 60.1933 57.8458 60.22C57.8058 60.2467 57.7658 60.2933 57.7258 60.36C57.6858 60.4267 57.6658 60.4667 57.6658 60.48C57.6524 60.52 57.6324 60.5333 57.6058 60.52C57.5924 60.5067 57.5524 60.5267 57.4858 60.58C57.4724 60.5933 57.4591 60.62 57.4458 60.66C57.4458 60.7 57.4391 60.7333 57.4258 60.76C57.3991 60.8 57.3724 60.8333 57.3458 60.86C57.3191 60.8733 57.3058 60.8867 57.3058 60.9C57.2924 60.9533 57.2658 60.9867 57.2258 61C57.1991 61 57.1724 61.0133 57.1458 61.04C57.1324 61.04 57.1258 61.0467 57.1258 61.06C57.1258 61.18 57.1124 61.2333 57.0858 61.22C57.0591 61.2067 57.0324 61.22 57.0058 61.26C56.9791 61.3133 56.9458 61.34 56.9058 61.34C56.8258 61.3667 56.7924 61.3867 56.8058 61.4C56.8324 61.4133 56.8524 61.4267 56.8658 61.44C56.8924 61.44 56.8724 61.46 56.8058 61.5C56.7791 61.5133 56.7524 61.5533 56.7258 61.62C56.6991 61.6733 56.6724 61.7133 56.6458 61.74C56.6058 61.7667 56.5658 61.7867 56.5258 61.8C56.4858 61.8133 56.4524 61.84 56.4258 61.88C56.3058 62 56.2058 62.06 56.1258 62.06ZM58.8748 62.06C58.7948 62.06 58.7548 62.0133 58.7548 61.92C58.7548 61.8533 58.7748 61.7733 58.8148 61.68C58.9215 61.4533 59.0415 61.1333 59.1748 60.72C59.3215 60.3067 59.5015 59.9533 59.7148 59.66C59.7815 59.5133 59.8815 59.3333 60.0148 59.12C60.1615 58.8933 60.3015 58.6267 60.4348 58.32V58.22C60.4348 58.18 60.4348 58.1467 60.4348 58.12C60.4482 58.08 60.4615 58.04 60.4748 58C60.5282 57.8933 60.5748 57.82 60.6148 57.78C60.6682 57.74 60.7215 57.6667 60.7748 57.56C60.7748 57.5333 60.7748 57.5067 60.7748 57.48C60.7882 57.4533 60.8015 57.4267 60.8148 57.4C60.7882 57.4267 60.7815 57.4067 60.7948 57.34C60.7682 57.34 60.7948 57.2733 60.8748 57.14C60.9282 57.02 60.9682 56.9533 60.9948 56.94H61.0148C61.0682 56.86 61.1148 56.7933 61.1548 56.74C61.1948 56.6733 61.2082 56.6333 61.1948 56.62V56.58C61.1948 56.4867 61.2215 56.4 61.2748 56.32C61.3415 56.24 61.4015 56.1533 61.4548 56.06C61.4948 56.0067 61.5282 55.98 61.5548 55.98C61.5815 55.98 61.5948 55.9867 61.5948 56C61.6082 56 61.6215 56 61.6348 56C61.6748 56 61.6948 55.9667 61.6948 55.9C61.6948 55.8733 61.6882 55.84 61.6748 55.8C61.6748 55.76 61.6682 55.7133 61.6548 55.66C61.6682 55.5933 61.7215 55.54 61.8148 55.5L61.8748 55.48C61.9415 55.2 62.0215 55.0133 62.1148 54.92C62.1415 54.8933 62.1682 54.8667 62.1948 54.84C62.2215 54.8133 62.2482 54.7867 62.2748 54.76C62.4348 54.5867 62.5548 54.4 62.6348 54.2C62.6615 54.1467 62.6948 54.1067 62.7348 54.08C62.7882 54.04 62.8348 53.9933 62.8748 53.94C62.9015 53.9 62.9082 53.86 62.8948 53.82C62.8948 53.7667 62.9015 53.72 62.9148 53.68C62.9815 53.5733 63.0282 53.5133 63.0548 53.5C63.0815 53.4867 63.1082 53.4733 63.1348 53.46C63.1748 53.4333 63.2415 53.3733 63.3348 53.28C63.3748 53.2133 63.4148 53.1467 63.4548 53.08C63.5082 53.0133 63.5615 52.9467 63.6148 52.88C63.6948 52.7867 63.7815 52.72 63.8748 52.68C63.9682 52.64 64.0615 52.58 64.1548 52.5C64.1815 52.4733 64.1948 52.4333 64.1948 52.38C64.1948 52.3133 64.2082 52.2667 64.2348 52.24C64.7015 51.8667 65.2015 51.5533 65.7348 51.3C66.2815 51.0467 66.7015 50.92 66.9948 50.92C67.1015 50.92 67.2015 50.9267 67.2948 50.94C67.4015 50.9533 67.5015 50.9733 67.5948 51H67.6348C67.7015 51 67.7682 51.0133 67.8348 51.04C67.9015 51.0667 67.9615 51.0933 68.0148 51.12C68.0682 51.12 68.1348 51.1333 68.2148 51.16C68.2815 51.1867 68.3215 51.2267 68.3348 51.28C68.3482 51.3333 68.3348 51.3733 68.2948 51.4C68.2815 51.4133 68.2615 51.4133 68.2348 51.4C68.2082 51.3867 68.1815 51.38 68.1548 51.38C68.1282 51.38 68.1015 51.3667 68.0748 51.34C68.0482 51.3133 68.0215 51.2933 67.9948 51.28C67.9415 51.28 67.8815 51.2867 67.8148 51.3C67.7615 51.3133 67.7015 51.32 67.6348 51.32H67.5748C67.4815 51.32 67.4148 51.3067 67.3748 51.28C67.3482 51.24 67.2815 51.2333 67.1748 51.26C67.1615 51.26 67.1215 51.2667 67.0548 51.28C66.9882 51.2933 66.9415 51.3 66.9148 51.3C66.4348 51.42 66.0148 51.62 65.6548 51.9C65.2948 52.1667 64.9748 52.4667 64.6948 52.8C64.4282 53.1333 64.1682 53.4533 63.9148 53.76C63.7948 54 63.6748 54.1933 63.5548 54.34C63.5415 54.3533 63.5282 54.3467 63.5148 54.32C63.5015 54.2933 63.4882 54.2933 63.4748 54.32C63.4348 54.36 63.4015 54.4267 63.3748 54.52C63.3615 54.6 63.3348 54.6667 63.2948 54.72C63.2815 54.7333 63.2682 54.7267 63.2548 54.7C63.2415 54.6733 63.2215 54.6733 63.1948 54.7C63.1815 54.7133 63.1615 54.7667 63.1348 54.86C63.1215 54.94 63.1015 54.9933 63.0748 55.02C62.9148 55.2333 62.7415 55.44 62.5548 55.64C62.3682 55.84 62.1815 56.0733 61.9948 56.34C61.7282 56.7533 61.4748 57.16 61.2348 57.56C60.9948 57.96 60.7415 58.4 60.4748 58.88C60.3815 59.04 60.3082 59.1867 60.2548 59.32C60.2148 59.44 60.1682 59.5533 60.1148 59.66C60.0882 59.7 60.0748 59.7533 60.0748 59.82C60.0748 59.9133 60.1282 59.96 60.2348 59.96C60.3148 59.96 60.3948 59.94 60.4748 59.9L60.6748 59.82C60.9948 59.5267 61.3282 59.28 61.6748 59.08C61.6882 59.08 61.6948 59.08 61.6948 59.08C61.7082 59.0667 61.7215 59.06 61.7348 59.06C61.7748 59.06 61.8015 59.0867 61.8148 59.14C61.8282 59.18 61.8148 59.2133 61.7748 59.24C61.3882 59.4533 61.0282 59.7267 60.6948 60.06C60.6815 60.0867 60.6682 60.1133 60.6548 60.14C60.6415 60.1667 60.6215 60.1933 60.5948 60.22C60.5682 60.2467 60.5282 60.2933 60.4748 60.36C60.4348 60.4267 60.4148 60.4667 60.4148 60.48C60.4015 60.52 60.3815 60.5333 60.3548 60.52C60.3415 60.5067 60.3015 60.5267 60.2348 60.58C60.2215 60.5933 60.2082 60.62 60.1948 60.66C60.1948 60.7 60.1882 60.7333 60.1748 60.76C60.1615 60.8 60.1348 60.8333 60.0948 60.86C60.0682 60.8733 60.0548 60.8867 60.0548 60.9C60.0415 60.9533 60.0148 60.9867 59.9748 61C59.9482 61 59.9215 61.0133 59.8948 61.04C59.8815 61.0533 59.8815 61.0733 59.8948 61.1C59.9082 61.1267 59.9015 61.1533 59.8748 61.18C59.8615 61.22 59.8482 61.24 59.8348 61.24C59.8215 61.2267 59.8015 61.2333 59.7748 61.26C59.7215 61.3133 59.6815 61.34 59.6548 61.34C59.5748 61.3667 59.5415 61.3867 59.5548 61.4C59.5815 61.4133 59.6015 61.4267 59.6148 61.44C59.6415 61.44 59.6215 61.46 59.5548 61.5C59.5282 61.5133 59.5015 61.5533 59.4748 61.62C59.4482 61.6733 59.4215 61.7133 59.3948 61.74C59.3548 61.7667 59.3148 61.7867 59.2748 61.8C59.2482 61.8133 59.2148 61.84 59.1748 61.88C59.0548 62 58.9548 62.06 58.8748 62.06Z" fill="white"/>
<path d="M75.7012 50.3223C76.2155 50.3223 76.7266 50.3581 77.2344 50.4297C77.7487 50.4948 78.2402 50.5762 78.709 50.6738C79.1842 50.765 79.6335 50.8561 80.0566 50.9473C80.4798 51.0384 80.8607 51.1035 81.1992 51.1426C81.1211 51.377 81.082 51.7904 81.082 52.3828C81.082 53.5352 81.2546 54.5345 81.5996 55.3809C81.5605 55.498 81.4401 55.5697 81.2383 55.5957L80.8184 54.6973C80.61 54.248 80.3594 53.8053 80.0664 53.3691C79.7734 52.9264 79.4219 52.5326 79.0117 52.1875C78.6016 51.8359 78.123 51.5527 77.5762 51.3379C77.0358 51.123 76.4108 51.0156 75.7012 51.0156C75.0892 51.0156 74.5456 51.1165 74.0703 51.3184C73.5951 51.5202 73.1784 51.7936 72.8203 52.1387C72.4622 52.4772 72.1595 52.8743 71.9121 53.3301C71.6647 53.7793 71.4629 54.2578 71.3066 54.7656C71.1569 55.2734 71.0462 55.7943 70.9746 56.3281C70.9095 56.862 70.877 57.3796 70.877 57.8809C70.877 58.7142 70.9844 59.5117 71.1992 60.2734C71.4206 61.0352 71.7624 61.709 72.2246 62.2949C72.6868 62.8743 73.2728 63.3366 73.9824 63.6816C74.6986 64.0267 75.5514 64.1992 76.541 64.1992C78.4355 64.1992 79.8678 63.6068 80.8379 62.4219C80.9421 62.4219 81.0267 62.4512 81.0918 62.5098C81.1634 62.5684 81.1992 62.64 81.1992 62.7246C80.8867 63.1868 80.5059 63.5872 80.0566 63.9258C79.6139 64.2643 79.1419 64.5443 78.6406 64.7656C78.1393 64.9805 77.6315 65.14 77.1172 65.2441C76.6094 65.3483 76.1374 65.4004 75.7012 65.4004C75.2259 65.4004 74.7116 65.3483 74.1582 65.2441C73.6113 65.1465 73.0612 64.9805 72.5078 64.7461C71.9609 64.5117 71.4336 64.2057 70.9258 63.8281C70.4245 63.444 69.9785 62.9753 69.5879 62.4219C69.1973 61.862 68.8848 61.2077 68.6504 60.459C68.416 59.7103 68.2988 58.8509 68.2988 57.8809C68.2988 56.9043 68.416 56.0417 68.6504 55.293C68.8848 54.5378 69.1973 53.8802 69.5879 53.3203C69.985 52.7604 70.4375 52.2917 70.9453 51.9141C71.4596 51.5299 71.9902 51.2207 72.5371 50.9863C73.084 50.7454 73.6309 50.5762 74.1777 50.4785C74.7246 50.3743 75.2324 50.3223 75.7012 50.3223ZM83.8164 58.584C83.8164 57.8678 84.1419 57.2786 84.793 56.8164C85.4505 56.3542 86.2253 56.123 87.1172 56.123C88.2109 56.123 88.9792 56.3411 89.4219 56.7773C89.8711 57.2135 90.0957 57.9492 90.0957 58.9844V63.0371C90.0957 63.4017 90.2292 63.584 90.4961 63.584C90.7109 63.584 90.9844 63.3236 91.3164 62.8027C91.5508 62.8223 91.7103 62.9264 91.7949 63.1152C91.7493 63.1803 91.6712 63.2975 91.5605 63.4668C91.4499 63.6361 91.3685 63.7565 91.3164 63.8281C91.2643 63.8997 91.1829 64.0104 91.0723 64.1602C90.9616 64.3034 90.8704 64.4108 90.7988 64.4824C90.7337 64.554 90.6426 64.6387 90.5254 64.7363C90.4147 64.834 90.3105 64.9089 90.2129 64.9609C90.1217 65.0065 90.0143 65.0456 89.8906 65.0781C89.7669 65.1172 89.6432 65.1367 89.5195 65.1367C89.194 65.1367 88.9238 65.0195 88.709 64.7852C88.5007 64.5508 88.377 64.1895 88.3379 63.7012C88.3314 63.7077 88.2305 63.8021 88.0352 63.9844C87.8398 64.1667 87.7031 64.2904 87.625 64.3555C87.5534 64.4141 87.4134 64.5215 87.2051 64.6777C87.0033 64.8275 86.8307 64.9349 86.6875 65C86.5443 65.0651 86.3652 65.127 86.1504 65.1855C85.9355 65.2507 85.724 65.2832 85.5156 65.2832C85.1836 65.2832 84.8874 65.2376 84.627 65.1465C84.373 65.0553 84.1745 64.9447 84.0312 64.8145C83.888 64.6842 83.7708 64.5345 83.6797 64.3652C83.5885 64.1895 83.5267 64.0299 83.4941 63.8867C83.4681 63.7435 83.4551 63.6003 83.4551 63.457C83.4551 63.0208 83.5267 62.653 83.6699 62.3535C83.8197 62.054 84.0931 61.7741 84.4902 61.5137C84.8939 61.2533 85.3887 61.0221 85.9746 60.8203C86.5605 60.6185 87.3483 60.3906 88.3379 60.1367V58.7793C88.3379 58.1217 88.1914 57.6302 87.8984 57.3047C87.612 56.9792 87.2246 56.8164 86.7363 56.8164C86.3001 56.8164 85.9323 56.9043 85.6328 57.0801C85.3398 57.2493 85.1608 57.4479 85.0957 57.6758C85.7337 57.7734 86.0527 58.1217 86.0527 58.7207C86.0527 58.9941 85.9551 59.235 85.7598 59.4434C85.5645 59.6517 85.291 59.7559 84.9395 59.7559C84.6465 59.7559 84.3861 59.6549 84.1582 59.4531C83.9303 59.2448 83.8164 58.9551 83.8164 58.584ZM88.3379 62.8027V60.7617C87.7389 60.8984 87.2441 61.0482 86.8535 61.2109C86.4629 61.3672 86.1634 61.5397 85.9551 61.7285C85.7533 61.9173 85.6133 62.1126 85.5352 62.3145C85.457 62.5098 85.418 62.7376 85.418 62.998C85.418 63.3236 85.5124 63.5807 85.7012 63.7695C85.8965 63.9518 86.1341 64.043 86.4141 64.043C87.0651 64.043 87.7064 63.6296 88.3379 62.8027ZM93.0352 56.9629C94.2982 56.8327 95.3984 56.5658 96.3359 56.1621C96.4987 56.2272 96.6126 56.3118 96.6777 56.416V58.0957C96.9186 57.64 97.2767 57.1973 97.752 56.7676C98.2337 56.3379 98.735 56.123 99.2559 56.123C99.6465 56.123 99.9622 56.2402 100.203 56.4746C100.451 56.7025 100.574 57.0182 100.574 57.4219C100.574 57.806 100.46 58.1055 100.232 58.3203C100.005 58.5352 99.7181 58.6426 99.373 58.6426C99.054 58.6426 98.7904 58.5417 98.582 58.3398C98.3802 58.1315 98.2695 57.8581 98.25 57.5195C97.9766 57.6367 97.6641 57.8971 97.3125 58.3008C96.9674 58.7044 96.7559 59.1048 96.6777 59.502C96.6777 60.9538 96.7038 62.3405 96.7559 63.6621C96.7624 63.8314 96.8242 63.9779 96.9414 64.1016C97.0586 64.2188 97.2311 64.3099 97.459 64.375C97.6868 64.4401 97.8757 64.4889 98.0254 64.5215C98.1751 64.5475 98.3704 64.5736 98.6113 64.5996C98.6504 64.6777 98.6699 64.7591 98.6699 64.8438C98.6699 64.9089 98.6504 64.9805 98.6113 65.0586C97.6348 65.0195 96.668 65 95.7109 65C94.9167 65 94.0898 65.0195 93.2305 65.0586C93.2044 64.9544 93.1914 64.8828 93.1914 64.8438C93.1914 64.8112 93.2044 64.7298 93.2305 64.5996C93.4453 64.5736 93.6211 64.5475 93.7578 64.5215C93.8945 64.4889 94.0638 64.4401 94.2656 64.375C94.4674 64.3099 94.6204 64.2188 94.7246 64.1016C94.8288 63.9779 94.8841 63.8314 94.8906 63.6621C94.9167 63.0176 94.9297 62.2363 94.9297 61.3184C94.9297 61.0124 94.9264 60.4915 94.9199 59.7559C94.9134 59.0202 94.9102 58.3757 94.9102 57.8223C94.5391 57.5944 93.9141 57.4609 93.0352 57.4219C93.0091 57.3177 92.9961 57.2363 92.9961 57.1777C92.9961 57.1387 93.0091 57.0671 93.0352 56.9629Z" fill="white"/>
</svg>
