<svg width="72" height="58" viewBox="0 0 72 58" fill="none" xmlns="http://www.w3.org/2000/svg">
<path d="M34.272 28.608C33.824 28.608 33.472 28.544 33.216 28.416C32.64 28.16 32.352 28.032 32.352 28.032C32.352 27.968 32.64 27.744 33.216 27.36C33.664 27.104 34.176 27.008 34.752 27.072C35.392 27.136 35.84 27.136 36.096 27.072C37.632 26.752 39.488 26.304 41.664 25.728C43.84 25.152 46.368 24 49.248 22.272L52.992 20.064C53.312 19.872 53.536 19.904 53.664 20.16C53.536 20.224 53.472 20.384 53.472 20.64C53.92 20.64 54.176 20.48 54.24 20.16C54.368 19.776 54.496 19.424 54.624 19.104H54.72L56.832 17.76C57.152 17.696 57.44 17.728 57.696 17.856C58.016 17.984 58.304 17.952 58.56 17.76C58.432 17.504 58.304 17.344 58.176 17.28C58.048 17.152 58.112 16.992 58.368 16.8L58.752 16.512C59.264 16.192 59.712 15.968 60.096 15.84C60.544 15.648 60.864 15.296 61.056 14.784C62.336 13.632 63.424 12.48 64.32 11.328C65.216 10.176 65.664 9.08798 65.664 8.06398C65.664 6.97598 65.056 6.04798 63.84 5.27998C62.688 4.44798 60.608 3.83998 57.6 3.45598L56.832 3.35998C56.384 3.29598 55.968 3.23198 55.584 3.16798C55.2 3.10398 54.816 2.97598 54.432 2.78398C54.496 3.03998 54.368 3.16798 54.048 3.16798C53.152 3.10398 52.256 3.07198 51.36 3.07198C50.464 3.00798 49.6 2.97598 48.768 2.97598C47.36 2.97598 46.048 3.00798 44.832 3.07198C43.68 3.13598 42.848 3.19998 42.336 3.26398L39.168 3.64798C38.784 3.51998 38.4 3.58398 38.016 3.83998H37.92C37.472 3.83998 37.024 3.90398 36.576 4.03198C36.128 4.09598 35.648 4.19198 35.136 4.31998C34.88 4.38398 34.592 4.44798 34.272 4.51198C33.952 4.51198 33.632 4.57598 33.312 4.70398L31.392 5.08798C30.944 5.40798 30.368 5.56798 29.664 5.56798H29.568L27.744 6.04798H27.648C27.392 6.04798 27.168 5.91998 26.976 5.66398C26.784 5.34398 26.656 5.05598 26.592 4.79998C26.528 5.18398 26.432 5.59998 26.304 6.04798C26.176 6.49598 25.952 6.71998 25.632 6.71998L22.944 7.58398C22.688 7.64798 22.4 7.67998 22.08 7.67998C21.76 7.67998 21.44 7.67998 21.12 7.67998C20.8 7.67998 20.544 7.71198 20.352 7.77598C20.16 7.83998 20.032 7.99998 19.968 8.25598C19.968 8.44798 19.872 8.60798 19.68 8.73598C19.424 8.99198 19.104 9.18398 18.72 9.31198C18.336 9.37598 17.984 9.47198 17.664 9.59998H17.568C17.44 9.59998 17.248 9.53598 16.992 9.40798C16.8 9.27998 16.64 9.24798 16.512 9.31198C16.448 9.37598 16.384 9.53598 16.32 9.79198C16.256 10.048 16.16 10.208 16.032 10.272V10.368C15.648 10.496 15.232 10.656 14.784 10.848C14.336 11.04 13.92 11.232 13.536 11.424C13.152 11.616 12.704 11.84 12.192 12.096C11.744 12.288 11.36 12.416 11.04 12.48C10.912 12.48 10.848 12.352 10.848 12.096C10.912 11.84 10.88 11.776 10.752 11.904C10.368 12.096 9.984 12.448 9.6 12.96C9.216 13.472 8.864 13.824 8.544 14.016C8.224 14.272 7.872 14.4 7.488 14.4C7.168 14.4 6.848 14.528 6.528 14.784C6.336 14.976 6.144 15.296 5.952 15.744C5.824 16.128 5.664 16.416 5.472 16.608C4.96 17.12 4.448 17.728 3.936 18.432C3.872 18.56 3.776 18.688 3.648 18.816C3.52 18.944 3.456 19.104 3.456 19.296H3.36C2.976 20.064 2.784 20.8 2.784 21.504C2.784 22.912 3.296 23.936 4.32 24.576C5.408 25.216 6.624 25.696 7.968 26.016C8.224 26.08 8.448 26.176 8.64 26.304C8.896 26.432 9.152 26.464 9.408 26.4C9.664 26.272 9.888 26.208 10.08 26.208C10.4 26.208 10.656 26.336 10.848 26.592L12.288 26.88C13.056 27.072 13.44 27.264 13.44 27.456C13.44 27.584 13.248 27.712 12.864 27.84C12.544 27.904 12.224 27.936 11.904 27.936C10.752 27.936 9.344 27.712 7.68 27.264C6.016 26.752 4.512 26.016 3.168 25.056C1.824 24.096 1.056 22.848 0.864003 21.312C0.864003 21.248 0.768003 21.088 0.576003 20.832C0.448003 20.576 0.352003 20.352 0.288003 20.16C0.0960028 19.584 2.86102e-06 19.008 2.86102e-06 18.432C2.86102e-06 17.344 0.224003 16.32 0.672003 15.36C1.184 14.4 1.856 13.504 2.688 12.672C3.008 12.352 3.296 12.128 3.552 12C3.872 11.872 4.224 11.68 4.608 11.424C4.992 11.168 5.184 10.944 5.184 10.752C5.184 10.56 5.376 10.336 5.76 10.08C6.272 9.75998 6.976 9.37598 7.872 8.92798C8.832 8.47998 9.568 8.12798 10.08 7.87198C10.464 7.87198 10.816 7.71198 11.136 7.39198C12.416 6.81598 13.76 6.30398 15.168 5.85598C16.576 5.34398 17.984 4.86398 19.392 4.41598C19.648 4.35198 19.872 4.28798 20.064 4.22398C20.256 4.15998 20.448 4.12798 20.64 4.12798C20.896 4.12798 21.152 4.22398 21.408 4.41598C21.408 4.28798 21.376 4.19198 21.312 4.12798C21.312 3.99998 21.376 3.90398 21.504 3.83998C23.104 3.32798 24.672 2.84798 26.208 2.39998C27.808 1.88798 29.376 1.63198 30.912 1.63198H31.008C31.136 1.63198 31.264 1.59998 31.392 1.53598C31.584 1.47198 31.744 1.43998 31.872 1.43998H31.968L32.64 1.34398C33.024 1.53598 33.408 1.47198 33.792 1.15198C35.52 0.831983 37.12 0.607983 38.592 0.479982C40.064 0.287981 41.312 0.19198 42.336 0.19198H42.72C43.04 0.19198 43.296 0.159981 43.488 0.0959816H44.448C44.64 0.0319824 44.832 0.0319824 45.024 0.0959816C45.28 0.0959816 45.472 0.0959816 45.6 0.0959816H45.696C46.464 0.0959816 47.264 0.127981 48.096 0.19198C48.992 0.19198 49.888 0.19198 50.784 0.19198H50.88C51.136 0.19198 51.328 0.287981 51.456 0.479982C51.648 0.607983 51.872 0.543983 52.128 0.287982C53.856 0.351981 55.584 0.543982 57.312 0.863983C58.592 1.05598 60.064 1.43998 61.728 2.01598C63.456 2.59198 64.96 3.48798 66.24 4.70398C67.52 5.85598 68.16 7.48798 68.16 9.59998C68.16 10.624 68.032 11.552 67.776 12.384C67.584 13.152 67.2 13.856 66.624 14.496C66.112 15.136 65.504 15.776 64.8 16.416C64.608 16.608 64.416 16.832 64.224 17.088C64.032 17.344 63.808 17.568 63.552 17.76C63.488 17.824 63.36 17.888 63.168 17.952C63.04 17.952 62.912 17.984 62.784 18.048C62.656 18.176 62.528 18.272 62.4 18.336C62.272 18.4 62.112 18.496 61.92 18.624C59.808 20.032 57.984 21.088 56.448 21.792C54.976 22.432 53.024 23.168 50.592 24C49.824 24.256 49.28 24.416 48.96 24.48C48.64 24.48 48.384 24.544 48.192 24.672C46.592 25.12 44.768 25.76 42.72 26.592C40.672 27.424 38.912 27.968 37.44 28.224C37.312 28.288 36.896 28.384 36.192 28.512C35.552 28.576 34.912 28.608 34.272 28.608ZM62.976 57.312C62.912 57.312 62.688 57.312 62.304 57.312C61.92 57.312 61.696 57.28 61.632 57.216C61.376 57.088 61.28 56.896 61.344 56.64C61.408 56.384 61.312 56.256 61.056 56.256C60.8 56.256 60.64 56.352 60.576 56.544C60.512 56.8 60.32 56.928 60 56.928H59.904C59.584 56.928 59.296 56.768 59.04 56.448C58.848 56.128 58.624 56.032 58.368 56.16C57.984 56.352 57.664 56.448 57.408 56.448C56.96 56.448 56.608 56.288 56.352 55.968C56.096 55.648 55.744 55.36 55.296 55.104C55.232 55.104 55.104 55.136 54.912 55.2C54.784 55.264 54.656 55.264 54.528 55.2C54.464 55.136 53.952 54.848 52.992 54.336C52.032 53.888 51.072 53.408 50.112 52.896C49.152 52.384 48.576 52.064 48.384 51.936C48.192 51.488 48 51.232 47.808 51.168C47.68 51.104 47.392 51.072 46.944 51.072C46.688 50.88 46.336 50.656 45.888 50.4C45.504 50.208 45.248 49.952 45.12 49.632C44.288 49.312 43.552 48.928 42.912 48.48C42.272 48.032 41.6 47.52 40.896 46.944C40.768 46.816 40.608 46.72 40.416 46.656C40.224 46.592 40.064 46.496 39.936 46.368L37.344 44.448C37.216 44.064 36.736 43.648 35.904 43.2C35.072 42.688 34.496 42.208 34.176 41.76C34.112 41.696 34.08 41.632 34.08 41.568C34.08 41.248 33.92 41.088 33.6 41.088C33.408 41.088 33.216 41.088 33.024 41.088C32.832 41.088 32.736 40.96 32.736 40.704C32.544 40.256 32.064 39.744 31.296 39.168C30.528 38.528 29.824 37.888 29.184 37.248C28.544 36.608 28.32 36.064 28.512 35.616C28.256 35.552 28 35.52 27.744 35.52C27.488 35.52 27.296 35.424 27.168 35.232C26.912 34.72 26.592 34.304 26.208 33.984C26.016 33.856 25.824 33.664 25.632 33.408L25.152 34.368C24.896 34.752 24.64 35.2 24.384 35.712C24.128 36.224 23.84 36.768 23.52 37.344L22.656 39.072C22.592 39.264 22.496 39.36 22.368 39.36C22.304 39.296 22.208 39.264 22.08 39.264C22.208 39.52 22.272 39.744 22.272 39.936C22.272 40.448 21.984 40.992 21.408 41.568C20.576 43.488 19.808 45.312 19.104 47.04C18.4 48.768 17.856 50.368 17.472 51.84C17.344 52.352 17.152 52.608 16.896 52.608C16.448 52.608 16.224 52.128 16.224 51.168C16.224 50.272 16.576 48.864 17.28 46.944L17.184 47.04C17.12 47.04 16.896 47.104 16.512 47.232C16.128 47.36 15.872 47.392 15.744 47.328C14.912 47.328 14.496 47.04 14.496 46.464C14.496 44.928 14.816 43.328 15.456 41.664L17.952 35.136C18.08 34.944 18.144 34.752 18.144 34.56C18.208 34.368 18.272 34.176 18.336 33.984L18.432 33.888V33.792L18.816 31.776C18.944 31.2 19.008 30.688 19.008 30.24C19.072 29.792 19.104 29.248 19.104 28.608C19.104 28.416 19.2 28.288 19.392 28.224C19.392 27.776 19.424 27.36 19.488 26.976C19.552 26.528 19.584 26.08 19.584 25.632V25.152C19.52 25.088 19.488 24.96 19.488 24.768C19.488 24.64 19.456 24.512 19.392 24.384C19.392 24.256 19.392 24.128 19.392 24C19.392 23.936 19.392 23.904 19.392 23.904C19.456 23.84 19.488 23.776 19.488 23.712C19.616 22.944 19.84 22.24 20.16 21.6C20.544 20.96 20.96 20.8 21.408 21.12C21.536 21.184 21.76 21.568 22.08 22.272C22.464 22.976 22.784 23.488 23.04 23.808C23.296 24.448 23.616 25.056 24 25.632C24.384 26.144 24.704 26.72 24.96 27.36C25.152 27.68 25.248 27.936 25.248 28.128C25.248 28.256 25.472 28.384 25.92 28.512C27.776 25.184 29.632 22.016 31.488 19.008C33.408 15.936 35.2 13.568 36.864 11.904L37.152 11.712L37.44 11.232C37.44 11.232 37.504 11.2 37.632 11.136C37.76 11.072 37.856 11.104 37.92 11.232C37.92 11.296 37.856 11.424 37.728 11.616C37.664 11.808 37.632 11.936 37.632 12C37.824 12.32 38.048 12.352 38.304 12.096C38.368 11.968 38.368 11.68 38.304 11.232C38.24 10.784 38.24 10.56 38.304 10.56C38.432 10.496 38.496 10.496 38.496 10.56C38.56 10.624 38.624 10.656 38.688 10.656C38.816 10.656 38.88 10.56 38.88 10.368C38.88 10.176 38.912 10.048 38.976 9.98398C39.68 9.72798 40.32 9.59998 40.896 9.59998C41.216 9.59998 41.664 9.75998 42.24 10.08C42.88 10.4 43.2 10.848 43.2 11.424C43.2 11.744 43.04 12.128 42.72 12.576C42.656 12.64 42.592 12.768 42.528 12.96C42.464 13.088 42.368 13.216 42.24 13.344C42.176 13.408 42.112 13.44 42.048 13.44C42.048 13.376 41.984 13.376 41.856 13.44C41.792 13.504 41.696 13.536 41.568 13.536C41.504 13.472 41.408 13.44 41.28 13.44C41.152 13.44 41.12 13.536 41.184 13.728C41.312 13.92 41.344 14.048 41.28 14.112C41.216 14.176 41.152 14.176 41.088 14.112C41.024 14.048 40.928 14.08 40.8 14.208C40.736 14.272 40.768 14.336 40.896 14.4C41.088 14.4 41.12 14.464 40.992 14.592C40.608 14.976 40.128 15.392 39.552 15.84C39.04 16.224 38.528 16.608 38.016 16.992C37.952 17.056 37.888 17.056 37.824 16.992C37.76 16.864 37.696 16.832 37.632 16.896L36.96 17.856C36.32 18.496 35.68 19.168 35.04 19.872C34.4 20.576 33.728 21.376 33.024 22.272C32.832 22.656 32.608 23.008 32.352 23.328C32.096 23.648 31.744 23.776 31.296 23.712C31.296 23.776 31.36 23.872 31.488 24C31.616 24.064 31.616 24.192 31.488 24.384C30.08 26.304 28.768 28.288 27.552 30.336L29.568 32.832C29.76 33.088 29.856 33.376 29.856 33.696C29.856 33.952 29.92 34.112 30.048 34.176C30.176 34.176 30.272 34.144 30.336 34.08C30.464 34.016 30.56 33.984 30.624 33.984C30.816 33.984 30.976 34.144 31.104 34.464C31.296 34.72 31.488 34.944 31.68 35.136C31.936 35.392 32.192 35.648 32.448 35.904C32.768 36.16 33.088 36.448 33.408 36.768V36.864C33.664 37.056 34.08 37.408 34.656 37.92C35.232 38.432 35.776 38.944 36.288 39.456C36.8 39.904 37.088 40.256 37.152 40.512C37.28 40.768 37.472 40.928 37.728 40.992C37.984 41.056 38.208 41.152 38.4 41.28C38.912 41.664 39.424 42.048 39.936 42.432C40.512 42.816 41.056 43.232 41.568 43.68C41.76 43.808 41.824 43.936 41.76 44.064C41.76 44.192 41.792 44.32 41.856 44.448C41.984 44.512 42.208 44.608 42.528 44.736C42.912 44.8 43.2 44.896 43.392 45.024C44.864 45.984 46.336 46.912 47.808 47.808C49.28 48.768 50.816 49.664 52.416 50.496C54.08 51.328 55.776 52.064 57.504 52.704C59.232 53.344 61.056 53.664 62.976 53.664C64.512 53.664 65.984 53.376 67.392 52.8C68.864 52.224 69.6 51.168 69.6 49.632C69.6 49.12 69.504 48.576 69.312 48C69.248 47.68 69.12 47.328 68.928 46.944C68.8 46.56 68.576 46.272 68.256 46.08C68.064 45.696 67.712 45.44 67.2 45.312C66.88 44.992 66.592 44.672 66.336 44.352C66.08 43.968 65.696 43.808 65.184 43.872C64.992 43.68 64.896 43.488 64.896 43.296C64.896 43.04 64.992 42.848 65.184 42.72C65.44 42.528 65.728 42.496 66.048 42.624C66.496 42.88 66.848 43.232 67.104 43.68C67.424 44.064 67.84 44.288 68.352 44.352L68.832 44.832C69.024 45.152 69.216 45.408 69.408 45.6C69.664 45.792 69.888 46.048 70.08 46.368C70.272 46.624 70.464 46.976 70.656 47.424C70.912 47.936 71.072 48.352 71.136 48.672C71.264 48.928 71.296 49.184 71.232 49.44C71.232 49.696 71.328 49.984 71.52 50.304C71.648 52.288 71.008 53.888 69.6 55.104C68.192 56.384 66.56 57.088 64.704 57.216C64.512 57.088 64.32 56.992 64.128 56.928C64 56.864 63.872 56.832 63.744 56.832C63.552 56.832 63.296 56.992 62.976 57.312ZM18.528 43.872C18.656 43.936 18.72 43.936 18.72 43.872C18.784 43.744 18.816 43.68 18.816 43.68C18.944 43.488 19.008 43.296 19.008 43.104C19.008 42.848 19.04 42.624 19.104 42.432C20.256 39.552 21.728 36.416 23.52 33.024C23.648 32.768 23.776 32.704 23.904 32.832C24.096 32.896 24.224 32.864 24.288 32.736C24.416 32.608 24.448 32.448 24.384 32.256C24.384 32.064 24.384 31.904 24.384 31.776C24.32 31.648 24.224 31.552 24.096 31.488C23.968 31.424 23.872 31.328 23.808 31.2C23.552 30.496 23.2 30.048 22.752 29.856C22.368 29.6 22.08 29.216 21.888 28.704C21.632 28.128 21.376 27.712 21.12 27.456C20.928 27.136 20.672 26.752 20.352 26.304L20.064 29.568C20 30.208 19.904 30.944 19.776 31.776C19.712 32.608 19.552 33.376 19.296 34.08C19.232 34.272 19.2 34.56 19.2 34.944V36C19.2 36.128 19.168 36.288 19.104 36.48C19.104 36.672 19.104 36.864 19.104 37.056L18.912 38.976C18.848 39.616 18.752 40.288 18.624 40.992C18.496 41.632 18.432 42.24 18.432 42.816C18.432 43.328 18.464 43.68 18.528 43.872Z" fill="#B70404"/>
</svg>
