<svg width="110" height="135" viewBox="0 0 110 135" fill="none" xmlns="http://www.w3.org/2000/svg">
<path d="M25.3516 101.668H70.0626C76.6915 101.668 82.0826 96.2779 82.0826 89.6485V62.1755C82.0826 61.0271 81.149 60.0935 80.0006 60.0935C78.8522 60.0935 77.9186 61.0271 77.9186 62.1755V89.6485C77.9186 93.9766 74.3952 97.5001 70.067 97.5001H25.352C21.0239 97.5001 17.5004 93.9767 17.5004 89.6485V44.9375C17.5004 40.6094 21.0238 37.0859 25.352 37.0859H52.825C53.9734 37.0859 54.907 36.1523 54.907 35.0039C54.907 33.8555 53.9734 32.9219 52.825 32.9219H25.352C18.7231 32.9219 13.332 38.3125 13.332 44.9419V89.6529C13.332 96.2818 18.7226 101.673 25.352 101.673L25.3516 101.668Z" fill="#FFA800"/>
<path d="M93.0475 27.8437L87.1569 21.9531C84.7194 19.5156 80.7546 19.5156 78.3171 21.9531L32.6491 67.6171C32.3913 67.8749 32.2077 68.1913 32.11 68.5429L27.692 84.7459C27.4967 85.4686 27.6998 86.2381 28.2311 86.7654C28.6256 87.1599 29.1569 87.3748 29.7038 87.3748C29.8874 87.3748 30.071 87.3513 30.2507 87.3006L46.4537 82.8826C46.8052 82.7849 47.1216 82.6013 47.3794 82.3435L93.0474 36.6755C95.4849 34.2419 95.4849 30.2732 93.0474 27.8357L93.0475 27.8437ZM37.0705 69.0897L75.3715 30.7887L84.2113 39.6285L45.9103 77.9295L37.0705 69.0897ZM35.1916 73.1014L41.8986 79.8084L32.6759 82.324L35.1916 73.1014ZM90.1016 33.7384L87.1563 36.6837L78.3165 27.8439L81.2618 24.8986C82.0743 24.0822 83.3985 24.0861 84.211 24.8986L90.1016 30.7892C90.9141 31.6017 90.9141 32.922 90.1016 33.7384Z" fill="#FFA800"/>
</svg>
