<svg width="110" height="135" viewBox="0 0 110 135" fill="none" xmlns="http://www.w3.org/2000/svg">
<path d="M55.0001 83.1524C61.3946 83.1524 67.1841 80.5586 71.3711 76.3712C75.5581 72.1838 78.1523 66.3946 78.1523 60.0002C78.1523 53.6058 75.5585 47.8162 71.3711 43.6292C67.1837 39.4422 61.3945 36.848 55.0001 36.848C48.6057 36.848 42.8161 39.4418 38.6291 43.6292C34.4421 47.8166 31.8479 53.6058 31.8479 60.0002C31.8479 66.3946 34.4417 72.1842 38.6291 76.3712C42.8165 80.5582 48.6057 83.1524 55.0001 83.1524ZM55.0001 69.9104C57.7384 69.9104 60.2189 68.801 62.0118 67.0081C63.8048 65.2151 64.9141 62.7347 64.9141 59.9964C64.9141 57.2581 63.8047 54.7776 62.0118 52.9847C60.2189 51.1918 57.7384 50.0824 55.0001 50.0824C52.2618 50.0824 49.7813 51.1918 47.9884 52.9847C46.1955 54.7776 45.0861 57.2581 45.0861 59.9964C45.0861 62.7347 46.1955 65.2152 47.9884 67.0081C49.7814 68.8011 52.2618 69.9104 55.0001 69.9104ZM65.2581 70.2542C62.6331 72.8792 59.0042 74.5042 55.0001 74.5042C50.996 74.5042 47.3673 72.8831 44.7421 70.2542C42.1171 67.6292 40.4921 64.0003 40.4921 59.9962C40.4921 55.9921 42.1132 52.3634 44.7421 49.7382C47.3671 47.1132 50.996 45.4882 55.0001 45.4882C59.0042 45.4882 62.6329 47.1093 65.2581 49.7382C67.8831 52.3632 69.5081 55.9921 69.5081 59.9962C69.5081 64.0003 67.887 67.629 65.2581 70.2542ZM103.446 61.4846C99.4969 66.2698 95.3797 70.4105 91.1451 73.9067C79.6841 83.3637 67.3601 88.0906 55.0001 88.0906C42.6451 88.0906 30.3161 83.3641 18.8551 73.9067C14.609 70.4067 10.4879 66.2544 6.52715 61.4537C5.8084 60.5826 5.84746 59.3403 6.55449 58.5122C10.5037 53.727 14.6209 49.5865 18.8555 46.0903C30.3165 36.6333 42.6405 31.9062 55.0005 31.9062C67.3555 31.9062 79.6845 36.6329 91.1455 46.0903C95.3916 49.5903 99.5127 53.7426 103.473 58.5433C104.192 59.4143 104.153 60.6565 103.446 61.4846ZM88.2391 70.3675C91.8211 67.4105 95.325 63.9534 98.7191 59.9965C95.3285 56.0395 91.8246 52.5824 88.2391 49.6255C84.1219 46.231 79.8993 43.4927 75.6101 41.4185C80.0476 46.3404 82.7507 52.8525 82.7507 59.9965C82.7507 67.141 80.0476 73.6605 75.6101 78.5745C79.8992 76.4964 84.1257 73.7581 88.2391 70.3675ZM34.3951 41.4185C30.106 43.4966 25.8795 46.231 21.7661 49.6255C18.1841 52.5825 14.6802 56.0396 11.2861 59.9965C14.6767 63.9535 18.1806 67.4106 21.7661 70.3675C25.8833 73.762 30.1059 76.4964 34.3951 78.5745C29.9576 73.6565 27.2545 67.1405 27.2545 59.9965C27.2545 52.852 29.9576 46.3325 34.3951 41.4185Z" fill="black"/>
</svg>
