<svg width="174" height="45" viewBox="0 0 174 45" fill="none" xmlns="http://www.w3.org/2000/svg">
<path d="M60.0899 35.7499C59.0354 35.7499 58.0425 35.5582 57.1113 35.1747C56.1937 34.7913 55.3925 34.264 54.7078 33.593C54.0231 32.9082 53.4821 32.1139 53.085 31.21C52.7015 30.2925 52.5098 29.3065 52.5098 28.2519C52.5098 27.1974 52.7083 26.2182 53.1055 25.3144C53.5026 24.4105 54.0504 23.6231 54.7489 22.952C55.461 22.2673 56.2896 21.74 57.2345 21.3702C58.1795 20.9868 59.1929 20.795 60.2748 20.795C61.521 20.795 62.6509 21.021 63.6643 21.4729C64.6914 21.9249 65.5405 22.548 66.2115 23.3423L64.0135 25.5403C63.5479 24.9378 63.0001 24.4858 62.3701 24.1845C61.7402 23.8833 61.028 23.7326 60.2337 23.7326C59.3846 23.7326 58.6246 23.9243 57.9535 24.3078C57.2825 24.6776 56.7552 25.2048 56.3717 25.8896C56.002 26.5606 55.8171 27.3481 55.8171 28.2519C55.8171 29.1558 56.002 29.9501 56.3717 30.6349C56.7415 31.3196 57.2482 31.8537 57.8919 32.2372C58.5355 32.6206 59.2751 32.8124 60.1105 32.8124C60.9595 32.8124 61.6785 32.6549 62.2674 32.3399C62.87 32.0112 63.3288 31.5456 63.6437 30.943C63.9724 30.3267 64.1368 29.5803 64.1368 28.7039L66.2732 30.1418L59.8023 30.0391V27.307H67.4235V27.7795C67.4235 29.5187 67.1086 30.9841 66.4786 32.1755C65.8623 33.3533 64.9995 34.2435 63.8903 34.8461C62.7947 35.4486 61.5279 35.7499 60.0899 35.7499Z" fill="white"/>
<path d="M69.0907 35.524V20.6102H72.2337V35.524H69.0907Z" fill="white"/>
<path d="M78.6171 35.7294C77.6995 35.7294 76.8778 35.5034 76.152 35.0515C75.4398 34.5995 74.8715 33.9833 74.447 33.2027C74.0361 32.422 73.8307 31.5319 73.8307 30.5321C73.8307 29.5324 74.0361 28.6422 74.447 27.8616C74.8715 27.081 75.4398 26.4648 76.152 26.0128C76.8778 25.5609 77.6995 25.3349 78.6171 25.3349C79.2881 25.3349 79.8907 25.465 80.4248 25.7252C80.9726 25.9854 81.4177 26.3483 81.7601 26.814C82.1024 27.2659 82.2942 27.7863 82.3352 28.3752V32.6891C82.2942 33.278 82.1024 33.8052 81.7601 34.2709C81.4314 34.7228 80.9931 35.0789 80.4453 35.3391C79.8976 35.5993 79.2881 35.7294 78.6171 35.7294ZM79.2539 32.8945C79.9249 32.8945 80.4659 32.6754 80.8767 32.2372C81.2876 31.7852 81.493 31.2169 81.493 30.5321C81.493 30.0665 81.3971 29.6557 81.2054 29.2996C81.0274 28.9435 80.7672 28.6696 80.4248 28.4779C80.0961 28.2725 79.7127 28.1698 79.2744 28.1698C78.8362 28.1698 78.4459 28.2725 78.1035 28.4779C77.7748 28.6696 77.5078 28.9435 77.3024 29.2996C77.1106 29.6557 77.0148 30.0665 77.0148 30.5321C77.0148 30.9841 77.1106 31.3881 77.3024 31.7441C77.4941 32.1002 77.7611 32.381 78.1035 32.5864C78.4459 32.7918 78.8293 32.8945 79.2539 32.8945ZM81.3698 35.524V32.8329L81.8422 30.4089L81.3698 27.9849V25.5403H84.4511V35.524H81.3698Z" fill="white"/>
<path d="M86.6641 35.524V25.5403H89.8071V35.524H86.6641ZM93.0528 35.524V29.6899C93.0528 29.1832 92.8953 28.7929 92.5803 28.519C92.279 28.2314 91.9024 28.0876 91.4505 28.0876C91.1355 28.0876 90.8547 28.1561 90.6082 28.293C90.3617 28.4163 90.1631 28.5943 90.0125 28.8271C89.8755 29.0599 89.8071 29.3475 89.8071 29.6899L88.5951 29.1558C88.5951 28.3615 88.7663 27.6836 89.1086 27.1221C89.451 26.5469 89.9166 26.1087 90.5055 25.8074C91.0944 25.4924 91.7586 25.3349 92.4981 25.3349C93.1966 25.3349 93.8197 25.4924 94.3675 25.8074C94.929 26.1224 95.3741 26.5606 95.7027 27.1221C96.0314 27.6836 96.1958 28.3547 96.1958 29.1353V35.524H93.0528ZM99.4415 35.524V29.6899C99.4415 29.1832 99.284 28.7929 98.969 28.519C98.6677 28.2314 98.2911 28.0876 97.8391 28.0876C97.5242 28.0876 97.2434 28.1561 96.9969 28.293C96.7504 28.4163 96.5518 28.5943 96.4012 28.8271C96.2642 29.0599 96.1958 29.3475 96.1958 29.6899L94.388 29.4434C94.4154 28.5943 94.614 27.8685 94.9838 27.2659C95.3672 26.6496 95.8671 26.1772 96.4833 25.8485C97.1133 25.5061 97.8186 25.3349 98.5992 25.3349C99.3661 25.3349 100.044 25.4993 100.633 25.8279C101.235 26.1429 101.708 26.6017 102.05 27.2043C102.406 27.7932 102.584 28.5053 102.584 29.3407V35.524H99.4415Z" fill="white"/>
<path d="M111.263 29.5461V27.1632H114.324C114.968 27.1632 115.461 26.9989 115.803 26.6702C116.159 26.3415 116.337 25.8964 116.337 25.3349C116.337 24.8145 116.166 24.3831 115.824 24.0407C115.481 23.6984 114.988 23.5272 114.344 23.5272H111.263V21.021H114.714C115.673 21.021 116.515 21.2059 117.241 21.5757C117.967 21.9317 118.535 22.4316 118.946 23.0753C119.357 23.7189 119.562 24.4584 119.562 25.2938C119.562 26.1429 119.357 26.8893 118.946 27.533C118.535 28.1629 117.96 28.6559 117.22 29.012C116.481 29.3681 115.611 29.5461 114.612 29.5461H111.263ZM108.798 35.524V21.021H112.023V35.524H108.798ZM116.686 35.524L112.167 29.2791L115.125 28.4779L120.507 35.524H116.686Z" fill="#F65364"/>
<path d="M125.54 35.7294C124.622 35.7294 123.8 35.5034 123.075 35.0515C122.362 34.5995 121.794 33.9833 121.369 33.2027C120.959 32.422 120.753 31.5319 120.753 30.5321C120.753 29.5324 120.959 28.6422 121.369 27.8616C121.794 27.081 122.362 26.4648 123.075 26.0128C123.8 25.5609 124.622 25.3349 125.54 25.3349C126.211 25.3349 126.813 25.465 127.347 25.7252C127.895 25.9854 128.34 26.3483 128.683 26.814C129.025 27.2659 129.217 27.7863 129.258 28.3752V32.6891C129.217 33.278 129.025 33.8052 128.683 34.2709C128.354 34.7228 127.916 35.0789 127.368 35.3391C126.82 35.5993 126.211 35.7294 125.54 35.7294ZM126.176 32.8945C126.847 32.8945 127.388 32.6754 127.799 32.2372C128.21 31.7852 128.416 31.2169 128.416 30.5321C128.416 30.0665 128.32 29.6557 128.128 29.2996C127.95 28.9435 127.69 28.6696 127.347 28.4779C127.019 28.2725 126.635 28.1698 126.197 28.1698C125.759 28.1698 125.368 28.2725 125.026 28.4779C124.697 28.6696 124.43 28.9435 124.225 29.2996C124.033 29.6557 123.937 30.0665 123.937 30.5321C123.937 30.9841 124.033 31.3881 124.225 31.7441C124.417 32.1002 124.684 32.381 125.026 32.5864C125.368 32.7918 125.752 32.8945 126.176 32.8945ZM128.292 35.524V32.8329L128.765 30.4089L128.292 27.9849V25.5403H131.374V35.524H128.292ZM125.006 24.4105L123.978 22.9109L127.245 19.8501L128.97 22.2741L125.006 24.4105Z" fill="#F65364"/>
<path d="M139.338 35.7294C138.667 35.7294 138.051 35.5993 137.49 35.3391C136.928 35.0789 136.469 34.7228 136.113 34.2709C135.757 33.8052 135.552 33.278 135.497 32.6891V28.4779C135.552 27.889 135.757 27.3549 136.113 26.8756C136.469 26.3963 136.928 26.0197 137.49 25.7458C138.051 25.4719 138.667 25.3349 139.338 25.3349C140.283 25.3349 141.119 25.5609 141.845 26.0128C142.584 26.4648 143.159 27.081 143.57 27.8616C143.995 28.6422 144.207 29.5324 144.207 30.5321C144.207 31.5319 143.995 32.422 143.57 33.2027C143.159 33.9833 142.584 34.5995 141.845 35.0515C141.119 35.5034 140.283 35.7294 139.338 35.7294ZM133.587 39.7351V25.5403H136.73V28.1081L136.216 30.5321L136.689 32.9562V39.7351H133.587ZM138.763 32.8945C139.215 32.8945 139.606 32.7918 139.934 32.5864C140.277 32.381 140.544 32.1002 140.735 31.7441C140.927 31.3881 141.023 30.9841 141.023 30.5321C141.023 30.0665 140.927 29.6557 140.735 29.2996C140.544 28.9435 140.277 28.6696 139.934 28.4779C139.606 28.2725 139.222 28.1698 138.784 28.1698C138.346 28.1698 137.955 28.2725 137.613 28.4779C137.284 28.6696 137.024 28.9435 136.832 29.2996C136.641 29.6557 136.545 30.0665 136.545 30.5321C136.545 30.9841 136.634 31.3881 136.812 31.7441C137.004 32.1002 137.271 32.381 137.613 32.5864C137.955 32.7918 138.339 32.8945 138.763 32.8945Z" fill="#F65364"/>
<path d="M145.804 35.524V25.5403H148.947V35.524H145.804ZM147.385 24.164C146.892 24.164 146.482 23.9997 146.153 23.671C145.838 23.3286 145.68 22.9178 145.68 22.4384C145.68 21.9454 145.838 21.5346 146.153 21.2059C146.482 20.8772 146.892 20.7129 147.385 20.7129C147.879 20.7129 148.283 20.8772 148.597 21.2059C148.912 21.5346 149.07 21.9454 149.07 22.4384C149.07 22.9178 148.912 23.3286 148.597 23.671C148.283 23.9997 147.879 24.164 147.385 24.164Z" fill="#F65364"/>
<path d="M155.412 35.7294C154.467 35.7294 153.625 35.5034 152.886 35.0515C152.16 34.5995 151.585 33.9833 151.16 33.2027C150.749 32.422 150.544 31.5319 150.544 30.5321C150.544 29.5324 150.749 28.6422 151.16 27.8616C151.585 27.081 152.16 26.4648 152.886 26.0128C153.625 25.5609 154.467 25.3349 155.412 25.3349C156.097 25.3349 156.713 25.465 157.261 25.7252C157.823 25.9854 158.281 26.3483 158.637 26.814C159.007 27.2659 159.213 27.7863 159.254 28.3752V32.5864C159.213 33.1753 159.014 33.7094 158.658 34.1887C158.302 34.6543 157.843 35.0309 157.282 35.3185C156.72 35.5924 156.097 35.7294 155.412 35.7294ZM155.967 32.8945C156.419 32.8945 156.809 32.7987 157.138 32.6069C157.467 32.4015 157.727 32.1208 157.918 31.7647C158.11 31.4086 158.206 30.9978 158.206 30.5321C158.206 30.0665 158.11 29.6625 157.918 29.3201C157.74 28.9641 157.48 28.6833 157.138 28.4779C156.809 28.2725 156.426 28.1698 155.987 28.1698C155.549 28.1698 155.159 28.2725 154.817 28.4779C154.488 28.6833 154.221 28.9641 154.015 29.3201C153.824 29.6762 153.728 30.0802 153.728 30.5321C153.728 30.9841 153.824 31.3881 154.015 31.7441C154.207 32.1002 154.474 32.381 154.817 32.5864C155.159 32.7918 155.542 32.8945 155.967 32.8945ZM161.164 35.524H158.083V32.8329L158.555 30.4089L158.021 27.9849V20.6102H161.164V35.524Z" fill="#F65364"/>
<path d="M168.184 35.7499C167.157 35.7499 166.226 35.524 165.39 35.072C164.569 34.6064 163.918 33.9764 163.439 33.1821C162.959 32.3878 162.72 31.4976 162.72 30.5116C162.72 29.5256 162.959 28.6422 163.439 27.8616C163.918 27.081 164.569 26.4648 165.39 26.0128C166.212 25.5472 167.143 25.3144 168.184 25.3144C169.225 25.3144 170.156 25.5403 170.978 25.9923C171.799 26.4442 172.45 27.0673 172.929 27.8616C173.409 28.6422 173.648 29.5256 173.648 30.5116C173.648 31.4976 173.409 32.3878 172.929 33.1821C172.45 33.9764 171.799 34.6064 170.978 35.072C170.156 35.524 169.225 35.7499 168.184 35.7499ZM168.184 32.8945C168.636 32.8945 169.033 32.7987 169.375 32.6069C169.718 32.4015 169.978 32.1208 170.156 31.7647C170.348 31.3949 170.444 30.9772 170.444 30.5116C170.444 30.046 170.348 29.642 170.156 29.2996C169.964 28.9435 169.697 28.6696 169.355 28.4779C169.026 28.2725 168.636 28.1698 168.184 28.1698C167.746 28.1698 167.355 28.2725 167.013 28.4779C166.671 28.6696 166.404 28.9435 166.212 29.2996C166.02 29.6557 165.924 30.0665 165.924 30.5321C165.924 30.9841 166.02 31.3949 166.212 31.7647C166.404 32.1208 166.671 32.4015 167.013 32.6069C167.355 32.7987 167.746 32.8945 168.184 32.8945Z" fill="#F65364"/>
<g clip-path="url(#clip0_3284_4256)">
<path d="M25.4805 20.0264V20.377H25.948C26.2422 20.3734 26.534 20.4301 26.8054 20.5437C27.0768 20.6573 27.322 20.8253 27.5259 21.0374C27.7405 21.2432 27.9123 21.4894 28.0314 21.7618C28.1506 22.0342 28.2147 22.3274 28.2202 22.6247V43.8191C28.2207 44.0882 28.1278 44.349 27.9572 44.5571C27.7866 44.7652 27.5491 44.9076 27.2851 44.9599H33.2462V44.5999H32.8172C32.519 44.6043 32.2228 44.5489 31.9464 44.4369C31.6699 44.3248 31.4188 44.1585 31.2077 43.9477C31.0163 43.7616 30.8582 43.5442 30.7402 43.3048C30.5946 43.0119 30.5209 42.6886 30.5251 42.3616V20.0264H25.4805Z" fill="#F65364"/>
<path d="M20.9632 38.8853C20.5728 39.5141 20.1076 39.8355 19.5606 39.8355H19.148V40.3405H23.6457V20.0273H19.1445V20.5334H19.5571C20.1076 20.5334 20.5728 20.8537 20.9597 21.4825C21.3466 22.1114 21.564 22.8758 21.5792 23.7629V36.6049C21.5675 37.4932 21.3606 38.2447 20.9632 38.8853Z" fill="white"/>
<path d="M46.2912 43.0387C45.7118 42.5437 45.1652 42.0115 44.6549 41.4456C44.2423 41.0131 43.7595 40.424 43.1798 39.6923C42.6001 38.9606 42.0542 38.2009 41.4932 37.4446C41.0408 36.8252 40.5301 36.1169 39.9597 35.301C39.8323 35.114 39.6943 34.9176 39.5564 34.7166C39.1191 34.1394 38.6529 33.5847 38.1597 33.0545L38.1211 33.0159C37.5799 32.4315 37.0785 32.0423 36.6168 31.8553C37.8816 31.8596 39.1161 31.4676 40.1467 30.7344C40.3915 30.5583 40.6257 30.3678 40.848 30.164C41.6908 29.384 42.3654 28.4401 42.8305 27.3901C43.2956 26.3402 43.5413 25.2063 43.5527 24.058C43.5739 22.9635 43.3908 21.8746 43.0127 20.8472C42.6638 19.9424 42.1277 19.1215 41.4394 18.4383C40.723 17.7482 39.8634 17.2243 38.9218 16.9036C37.8528 16.5373 36.7287 16.3578 35.5988 16.373H15.9238V19.5943H16.5082C16.5082 19.0797 16.7127 18.5862 17.0765 18.2223C17.4404 17.8584 17.9339 17.654 18.4485 17.654V17.6365C23.1238 17.6365 32.6276 17.6283 33.0905 17.6224C33.8702 17.6024 34.6504 17.6219 35.4281 17.6809C36.9523 17.7588 38.1714 18.3487 39.0854 19.4505C39.9994 20.5523 40.4669 22.0305 40.488 23.885C40.5187 24.3278 40.5058 24.7726 40.4494 25.2128C40.4135 25.5918 40.3443 25.9669 40.2425 26.3337C39.8685 27.5622 39.3075 28.4774 38.5711 29.0665C37.886 29.6447 37.0737 30.0524 36.2007 30.2563C35.4384 30.4326 34.662 30.5413 33.8806 30.5813C33.281 30.6105 32.5528 30.6105 31.7077 30.5813V30.9939C32.4453 30.9939 33.1232 31.2791 33.7532 31.8495C34.3818 32.4227 34.9577 33.0514 35.4737 33.7278C35.5228 33.8061 35.7297 34.1018 36.0827 34.6032C36.2603 34.858 36.4567 35.1339 36.6671 35.4389C36.8775 35.744 37.1089 36.0678 37.3555 36.4219C37.6208 36.8146 37.8955 37.2085 38.1737 37.6013C38.3899 37.9169 38.6155 38.2406 38.8423 38.5656C39.3437 39.2832 39.7855 39.9027 40.1502 40.424C40.5149 40.9453 40.7346 41.2492 40.8281 41.3591C41.3182 41.9385 41.8508 42.4808 42.4212 42.9814C43.1056 43.5723 43.8828 44.0462 44.7215 44.384C45.6367 44.7674 46.7179 44.9544 47.9662 44.9544H50.2185V44.5406C49.4838 44.5553 48.754 44.418 48.0749 44.1374C47.4281 43.8635 46.8267 43.4931 46.2912 43.0387Z" fill="#F65364"/>
<path d="M10.6177 42.1212C13.7665 43.8627 17.3338 44.7884 21.3136 44.9264L23.5812 44.9392V44.9521H25.6196V41.4187H25.2129C25.2125 41.8404 25.0486 42.2455 24.7556 42.5487C24.4626 42.852 24.0634 43.0297 23.6419 43.0445C23.1148 43.0819 22.583 43.1077 22.043 43.1077C18.5871 43.0219 15.5509 42.1157 12.9343 40.389C10.3177 38.6622 8.28195 36.2548 6.82714 33.1668C5.36065 30.0803 4.62896 26.4779 4.63208 22.3597C4.63519 18.2416 5.36688 14.6478 6.82714 11.5784C8.28584 8.51766 10.3442 6.13052 13.0021 4.41701C15.66 2.70351 18.7995 1.8487 22.4205 1.8526C26.1257 1.8526 29.3762 2.79039 32.1721 4.66597C34.9679 6.54156 36.8205 9.28909 37.7299 12.9086H38.2874L37.0519 4.20779C35.2426 3.01558 33.1071 2.01156 30.6619 1.21442C28.2167 0.417273 25.4653 0 22.4205 0C17.8917 0 13.9492 0.937792 10.5931 2.81338C7.29433 4.62796 4.58322 7.348 2.77948 10.6527C0.926493 14.0143 0 17.9369 0 22.4205C0 26.9922 0.937792 30.9545 2.81338 34.3075C4.6223 37.5986 7.32873 40.3083 10.6177 42.1212Z" fill="white"/>
<path d="M17.0989 13.7533C16.4338 13.6246 15.9166 13.3857 15.5473 13.0365C15.1781 12.6874 14.9287 12.1823 14.799 11.5212C14.6686 10.8599 14.567 9.94135 14.4941 8.76562C14.3827 9.94202 14.2626 10.8605 14.1338 11.5212C14.005 12.1818 13.7647 12.6869 13.4129 13.0365C13.0617 13.3866 12.5536 13.6255 11.8887 13.7533C11.2238 13.8812 10.3 14.0006 9.11719 14.1116C10.2993 14.1858 11.2231 14.2868 11.8887 14.4146C12.5543 14.5425 13.0624 14.7812 13.4129 15.1308C13.7649 15.481 14.0053 15.9862 14.1338 16.6464C14.2624 17.3066 14.3825 18.2252 14.4941 19.402C14.5677 18.2265 14.6693 17.308 14.799 16.6464C14.9287 15.9849 15.1781 15.4797 15.5473 15.1308C15.9161 14.7825 16.4333 14.5438 17.0989 14.4146C17.7645 14.2855 18.6883 14.1844 19.8704 14.1116C18.6877 14.001 17.7638 13.8816 17.0989 13.7533ZM17.0989 13.7533C16.4338 13.6246 15.9166 13.3857 15.5473 13.0365C15.1781 12.6874 14.9287 12.1823 14.799 11.5212C14.6686 10.8599 14.567 9.94135 14.4941 8.76562C14.3827 9.94202 14.2626 10.8605 14.1338 11.5212C14.005 12.1818 13.7647 12.6869 13.4129 13.0365C13.0617 13.3866 12.5536 13.6255 11.8887 13.7533C11.2238 13.8812 10.3 14.0006 9.11719 14.1116C10.2993 14.1858 11.2231 14.2868 11.8887 14.4146C12.5543 14.5425 13.0624 14.7812 13.4129 15.1308C13.7649 15.481 14.0053 15.9862 14.1338 16.6464C14.2624 17.3066 14.3825 18.2252 14.4941 19.402C14.5677 18.2265 14.6693 17.308 14.799 16.6464C14.9287 15.9849 15.1781 15.4797 15.5473 15.1308C15.9161 14.7825 16.4333 14.5438 17.0989 14.4146C17.7645 14.2855 18.6883 14.1844 19.8704 14.1116C18.6877 14.001 17.7638 13.8816 17.0989 13.7533ZM17.0989 13.7533C16.4338 13.6246 15.9166 13.3857 15.5473 13.0365C15.1781 12.6874 14.9287 12.1823 14.799 11.5212C14.6686 10.8599 14.567 9.94135 14.4941 8.76562C14.3827 9.94202 14.2626 10.8605 14.1338 11.5212C14.005 12.1818 13.7647 12.6869 13.4129 13.0365C13.0617 13.3866 12.5536 13.6255 11.8887 13.7533C11.2238 13.8812 10.3 14.0006 9.11719 14.1116C10.2993 14.1858 11.2231 14.2868 11.8887 14.4146C12.5543 14.5425 13.0624 14.7812 13.4129 15.1308C13.7649 15.481 14.0053 15.9862 14.1338 16.6464C14.2624 17.3066 14.3825 18.2252 14.4941 19.402C14.5677 18.2265 14.6693 17.308 14.799 16.6464C14.9287 15.9849 15.1781 15.4797 15.5473 15.1308C15.9161 14.7825 16.4333 14.5438 17.0989 14.4146C17.7645 14.2855 18.6883 14.1844 19.8704 14.1116C18.6877 14.001 17.7638 13.8816 17.0989 13.7533Z" fill="white"/>
</g>
<defs>
<clipPath id="clip0_3284_4256">
<rect width="50.2597" height="45" fill="white"/>
</clipPath>
</defs>
</svg>
