<svg width="174" height="46" viewBox="0 0 174 46" fill="none" xmlns="http://www.w3.org/2000/svg">
<path d="M60.0899 36.2494C59.0354 36.2494 58.0425 36.0577 57.1113 35.6742C56.1937 35.2908 55.3925 34.7635 54.7078 34.0925C54.0231 33.4077 53.4821 32.6134 53.085 31.7096C52.7015 30.792 52.5098 29.806 52.5098 28.7515C52.5098 27.6969 52.7083 26.7178 53.1055 25.8139C53.5026 24.91 54.0504 24.1226 54.7489 23.4515C55.461 22.7668 56.2896 22.2395 57.2345 21.8697C58.1795 21.4863 59.1929 21.2946 60.2748 21.2946C61.521 21.2946 62.6509 21.5205 63.6643 21.9725C64.6914 22.4244 65.5405 23.0475 66.2115 23.8418L64.0135 26.0399C63.5479 25.4373 63.0001 24.9853 62.3701 24.6841C61.7402 24.3828 61.028 24.2321 60.2337 24.2321C59.3846 24.2321 58.6246 24.4239 57.9535 24.8073C57.2825 25.1771 56.7552 25.7043 56.3717 26.3891C56.002 27.0601 55.8171 27.8476 55.8171 28.7515C55.8171 29.6553 56.002 30.4496 56.3717 31.1344C56.7415 31.8191 57.2482 32.3532 57.8919 32.7367C58.5355 33.1201 59.2751 33.3119 60.1105 33.3119C60.9595 33.3119 61.6785 33.1544 62.2674 32.8394C62.87 32.5107 63.3288 32.0451 63.6437 31.4425C63.9724 30.8262 64.1368 30.0799 64.1368 29.2034L66.2732 30.6414L59.8023 30.5386V27.8065H67.4235V28.279C67.4235 30.0182 67.1086 31.4836 66.4786 32.6751C65.8623 33.8528 64.9995 34.743 63.8903 35.3456C62.7947 35.9481 61.5279 36.2494 60.0899 36.2494Z" fill="#181D3D"/>
<path d="M69.0907 36.0235V21.1097H72.2337V36.0235H69.0907Z" fill="#181D3D"/>
<path d="M78.6171 36.2289C77.6995 36.2289 76.8778 36.0029 76.152 35.551C75.4398 35.0991 74.8715 34.4828 74.447 33.7022C74.0361 32.9216 73.8307 32.0314 73.8307 31.0317C73.8307 30.0319 74.0361 29.1418 74.447 28.3611C74.8715 27.5805 75.4398 26.9643 76.152 26.5123C76.8778 26.0604 77.6995 25.8344 78.6171 25.8344C79.2881 25.8344 79.8907 25.9645 80.4248 26.2247C80.9726 26.4849 81.4177 26.8479 81.7601 27.3135C82.1024 27.7654 82.2942 28.2858 82.3352 28.8747V33.1886C82.2942 33.7775 82.1024 34.3047 81.7601 34.7704C81.4314 35.2223 80.9931 35.5784 80.4453 35.8386C79.8976 36.0988 79.2881 36.2289 78.6171 36.2289ZM79.2539 33.394C79.9249 33.394 80.4659 33.1749 80.8767 32.7367C81.2876 32.2847 81.493 31.7164 81.493 31.0317C81.493 30.566 81.3971 30.1552 81.2054 29.7991C81.0274 29.443 80.7672 29.1691 80.4248 28.9774C80.0961 28.772 79.7127 28.6693 79.2744 28.6693C78.8362 28.6693 78.4459 28.772 78.1035 28.9774C77.7748 29.1691 77.5078 29.443 77.3024 29.7991C77.1106 30.1552 77.0148 30.566 77.0148 31.0317C77.0148 31.4836 77.1106 31.8876 77.3024 32.2437C77.4941 32.5997 77.7611 32.8805 78.1035 33.0859C78.4459 33.2913 78.8293 33.394 79.2539 33.394ZM81.3698 36.0235V33.3324L81.8422 30.9084L81.3698 28.4844V26.0399H84.4511V36.0235H81.3698Z" fill="#181D3D"/>
<path d="M86.6641 36.0235V26.0399H89.8071V36.0235H86.6641ZM93.0528 36.0235V30.1894C93.0528 29.6827 92.8953 29.2924 92.5803 29.0185C92.279 28.7309 91.9024 28.5871 91.4505 28.5871C91.1355 28.5871 90.8547 28.6556 90.6082 28.7925C90.3617 28.9158 90.1631 29.0938 90.0125 29.3266C89.8755 29.5595 89.8071 29.847 89.8071 30.1894L88.5951 29.6553C88.5951 28.861 88.7663 28.1831 89.1086 27.6216C89.451 27.0464 89.9166 26.6082 90.5055 26.3069C91.0944 25.9919 91.7586 25.8344 92.4981 25.8344C93.1966 25.8344 93.8197 25.9919 94.3675 26.3069C94.929 26.6219 95.3741 27.0601 95.7027 27.6216C96.0314 28.1831 96.1958 28.8542 96.1958 29.6348V36.0235H93.0528ZM99.4415 36.0235V30.1894C99.4415 29.6827 99.284 29.2924 98.969 29.0185C98.6677 28.7309 98.2911 28.5871 97.8391 28.5871C97.5242 28.5871 97.2434 28.6556 96.9969 28.7925C96.7504 28.9158 96.5518 29.0938 96.4012 29.3266C96.2642 29.5595 96.1958 29.847 96.1958 30.1894L94.388 29.9429C94.4154 29.0938 94.614 28.368 94.9838 27.7654C95.3672 27.1491 95.8671 26.6767 96.4833 26.348C97.1133 26.0056 97.8186 25.8344 98.5992 25.8344C99.3661 25.8344 100.044 25.9988 100.633 26.3274C101.235 26.6424 101.708 27.1012 102.05 27.7038C102.406 28.2927 102.584 29.0048 102.584 29.8402V36.0235H99.4415Z" fill="#181D3D"/>
<path d="M111.263 30.0456V27.6627H114.324C114.968 27.6627 115.461 27.4984 115.803 27.1697C116.159 26.841 116.337 26.3959 116.337 25.8344C116.337 25.314 116.166 24.8826 115.824 24.5403C115.481 24.1979 114.988 24.0267 114.344 24.0267H111.263V21.5205H114.714C115.673 21.5205 116.515 21.7054 117.241 22.0752C117.967 22.4312 118.535 22.9311 118.946 23.5748C119.357 24.2184 119.562 24.958 119.562 25.7933C119.562 26.6424 119.357 27.3888 118.946 28.0325C118.535 28.6624 117.96 29.1555 117.22 29.5115C116.481 29.8676 115.611 30.0456 114.612 30.0456H111.263ZM108.798 36.0235V21.5205H112.023V36.0235H108.798ZM116.686 36.0235L112.167 29.7786L115.125 28.9774L120.507 36.0235H116.686Z" fill="#F65364"/>
<path d="M125.54 36.2289C124.622 36.2289 123.8 36.0029 123.075 35.551C122.362 35.0991 121.794 34.4828 121.369 33.7022C120.959 32.9216 120.753 32.0314 120.753 31.0317C120.753 30.0319 120.959 29.1418 121.369 28.3611C121.794 27.5805 122.362 26.9643 123.075 26.5123C123.8 26.0604 124.622 25.8344 125.54 25.8344C126.211 25.8344 126.813 25.9645 127.347 26.2247C127.895 26.4849 128.34 26.8479 128.683 27.3135C129.025 27.7654 129.217 28.2858 129.258 28.8747V33.1886C129.217 33.7775 129.025 34.3047 128.683 34.7704C128.354 35.2223 127.916 35.5784 127.368 35.8386C126.82 36.0988 126.211 36.2289 125.54 36.2289ZM126.176 33.394C126.847 33.394 127.388 33.1749 127.799 32.7367C128.21 32.2847 128.416 31.7164 128.416 31.0317C128.416 30.566 128.32 30.1552 128.128 29.7991C127.95 29.443 127.69 29.1691 127.347 28.9774C127.019 28.772 126.635 28.6693 126.197 28.6693C125.759 28.6693 125.368 28.772 125.026 28.9774C124.697 29.1691 124.43 29.443 124.225 29.7991C124.033 30.1552 123.937 30.566 123.937 31.0317C123.937 31.4836 124.033 31.8876 124.225 32.2437C124.417 32.5997 124.684 32.8805 125.026 33.0859C125.368 33.2913 125.752 33.394 126.176 33.394ZM128.292 36.0235V33.3324L128.765 30.9084L128.292 28.4844V26.0399H131.374V36.0235H128.292ZM125.006 24.91L123.978 23.4104L127.245 20.3496L128.97 22.7736L125.006 24.91Z" fill="#F65364"/>
<path d="M139.338 36.2289C138.667 36.2289 138.051 36.0988 137.49 35.8386C136.928 35.5784 136.469 35.2223 136.113 34.7704C135.757 34.3047 135.552 33.7775 135.497 33.1886V28.9774C135.552 28.3885 135.757 27.8544 136.113 27.3751C136.469 26.8958 136.928 26.5192 137.49 26.2453C138.051 25.9714 138.667 25.8344 139.338 25.8344C140.283 25.8344 141.119 26.0604 141.845 26.5123C142.584 26.9643 143.159 27.5805 143.57 28.3611C143.995 29.1418 144.207 30.0319 144.207 31.0317C144.207 32.0314 143.995 32.9216 143.57 33.7022C143.159 34.4828 142.584 35.0991 141.845 35.551C141.119 36.0029 140.283 36.2289 139.338 36.2289ZM133.587 40.2347V26.0399H136.73V28.6077L136.216 31.0317L136.689 33.4557V40.2347H133.587ZM138.763 33.394C139.215 33.394 139.606 33.2913 139.934 33.0859C140.277 32.8805 140.544 32.5997 140.735 32.2437C140.927 31.8876 141.023 31.4836 141.023 31.0317C141.023 30.566 140.927 30.1552 140.735 29.7991C140.544 29.443 140.277 29.1691 139.934 28.9774C139.606 28.772 139.222 28.6693 138.784 28.6693C138.346 28.6693 137.955 28.772 137.613 28.9774C137.284 29.1691 137.024 29.443 136.832 29.7991C136.641 30.1552 136.545 30.566 136.545 31.0317C136.545 31.4836 136.634 31.8876 136.812 32.2437C137.004 32.5997 137.271 32.8805 137.613 33.0859C137.955 33.2913 138.339 33.394 138.763 33.394Z" fill="#F65364"/>
<path d="M145.804 36.0235V26.0399H148.947V36.0235H145.804ZM147.385 24.6635C146.892 24.6635 146.482 24.4992 146.153 24.1705C145.838 23.8281 145.68 23.4173 145.68 22.938C145.68 22.4449 145.838 22.0341 146.153 21.7054C146.482 21.3767 146.892 21.2124 147.385 21.2124C147.879 21.2124 148.283 21.3767 148.597 21.7054C148.912 22.0341 149.07 22.4449 149.07 22.938C149.07 23.4173 148.912 23.8281 148.597 24.1705C148.283 24.4992 147.879 24.6635 147.385 24.6635Z" fill="#F65364"/>
<path d="M155.412 36.2289C154.467 36.2289 153.625 36.0029 152.886 35.551C152.16 35.0991 151.585 34.4828 151.16 33.7022C150.749 32.9216 150.544 32.0314 150.544 31.0317C150.544 30.0319 150.749 29.1418 151.16 28.3611C151.585 27.5805 152.16 26.9643 152.886 26.5123C153.625 26.0604 154.467 25.8344 155.412 25.8344C156.097 25.8344 156.713 25.9645 157.261 26.2247C157.823 26.4849 158.281 26.8479 158.637 27.3135C159.007 27.7654 159.213 28.2858 159.254 28.8747V33.0859C159.213 33.6748 159.014 34.2089 158.658 34.6882C158.302 35.1538 157.843 35.5304 157.282 35.818C156.72 36.0919 156.097 36.2289 155.412 36.2289ZM155.967 33.394C156.419 33.394 156.809 33.2982 157.138 33.1064C157.467 32.901 157.727 32.6203 157.918 32.2642C158.11 31.9081 158.206 31.4973 158.206 31.0317C158.206 30.566 158.11 30.162 157.918 29.8197C157.74 29.4636 157.48 29.1828 157.138 28.9774C156.809 28.772 156.426 28.6693 155.987 28.6693C155.549 28.6693 155.159 28.772 154.817 28.9774C154.488 29.1828 154.221 29.4636 154.015 29.8197C153.824 30.1757 153.728 30.5797 153.728 31.0317C153.728 31.4836 153.824 31.8876 154.015 32.2437C154.207 32.5997 154.474 32.8805 154.817 33.0859C155.159 33.2913 155.542 33.394 155.967 33.394ZM161.164 36.0235H158.083V33.3324L158.555 30.9084L158.021 28.4844V21.1097H161.164V36.0235Z" fill="#F65364"/>
<path d="M168.184 36.2494C167.157 36.2494 166.226 36.0235 165.39 35.5715C164.569 35.1059 163.918 34.4759 163.439 33.6816C162.959 32.8873 162.72 31.9972 162.72 31.0111C162.72 30.0251 162.959 29.1418 163.439 28.3611C163.918 27.5805 164.569 26.9643 165.39 26.5123C166.212 26.0467 167.143 25.8139 168.184 25.8139C169.225 25.8139 170.156 26.0399 170.978 26.4918C171.799 26.9437 172.45 27.5668 172.929 28.3611C173.409 29.1418 173.648 30.0251 173.648 31.0111C173.648 31.9972 173.409 32.8873 172.929 33.6816C172.45 34.4759 171.799 35.1059 170.978 35.5715C170.156 36.0235 169.225 36.2494 168.184 36.2494ZM168.184 33.394C168.636 33.394 169.033 33.2982 169.375 33.1064C169.718 32.901 169.978 32.6203 170.156 32.2642C170.348 31.8944 170.444 31.4767 170.444 31.0111C170.444 30.5455 170.348 30.1415 170.156 29.7991C169.964 29.443 169.697 29.1691 169.355 28.9774C169.026 28.772 168.636 28.6693 168.184 28.6693C167.746 28.6693 167.355 28.772 167.013 28.9774C166.671 29.1691 166.404 29.443 166.212 29.7991C166.02 30.1552 165.924 30.566 165.924 31.0317C165.924 31.4836 166.02 31.8944 166.212 32.2642C166.404 32.6203 166.671 32.901 167.013 33.1064C167.355 33.2982 167.746 33.394 168.184 33.394Z" fill="#F65364"/>
<g clip-path="url(#clip0_3284_3933)">
<path d="M25.4805 20.5264V20.877H25.948C26.2422 20.8734 26.534 20.9301 26.8054 21.0437C27.0768 21.1573 27.322 21.3253 27.5259 21.5374C27.7405 21.7432 27.9123 21.9894 28.0314 22.2618C28.1506 22.5342 28.2147 22.8274 28.2202 23.1247V44.3191C28.2207 44.5882 28.1278 44.849 27.9572 45.0571C27.7866 45.2652 27.5491 45.4076 27.2851 45.4599H33.2462V45.0999H32.8172C32.519 45.1043 32.2228 45.0489 31.9464 44.9369C31.6699 44.8248 31.4188 44.6585 31.2077 44.4477C31.0163 44.2616 30.8582 44.0442 30.7402 43.8048C30.5946 43.5119 30.5209 43.1886 30.5251 42.8616V20.5264H25.4805Z" fill="#F65364"/>
<path d="M20.9632 39.3853C20.5728 40.0141 20.1076 40.3355 19.5606 40.3355H19.148V40.8405H23.6457V20.5273H19.1445V21.0334H19.5571C20.1076 21.0334 20.5728 21.3537 20.9597 21.9825C21.3466 22.6114 21.564 23.3758 21.5792 24.2629V37.1049C21.5675 37.9932 21.3606 38.7447 20.9632 39.3853Z" fill="#181D3D"/>
<path d="M46.2912 43.5387C45.7118 43.0437 45.1652 42.5115 44.6549 41.9456C44.2423 41.5131 43.7595 40.924 43.1798 40.1923C42.6001 39.4606 42.0542 38.7009 41.4932 37.9446C41.0408 37.3252 40.5301 36.6169 39.9597 35.801C39.8323 35.614 39.6943 35.4176 39.5564 35.2166C39.1191 34.6394 38.6529 34.0847 38.1597 33.5545L38.1211 33.5159C37.5799 32.9315 37.0785 32.5423 36.6168 32.3553C37.8816 32.3596 39.1161 31.9676 40.1467 31.2344C40.3915 31.0583 40.6257 30.8678 40.848 30.664C41.6908 29.884 42.3654 28.9401 42.8305 27.8901C43.2956 26.8402 43.5413 25.7063 43.5527 24.558C43.5739 23.4635 43.3908 22.3746 43.0127 21.3472C42.6638 20.4424 42.1277 19.6215 41.4394 18.9383C40.723 18.2482 39.8634 17.7243 38.9218 17.4036C37.8528 17.0373 36.7287 16.8578 35.5988 16.873H15.9238V20.0943H16.5082C16.5082 19.5797 16.7127 19.0862 17.0765 18.7223C17.4404 18.3584 17.9339 18.154 18.4485 18.154V18.1365C23.1238 18.1365 32.6276 18.1283 33.0905 18.1224C33.8702 18.1024 34.6504 18.1219 35.4281 18.1809C36.9523 18.2588 38.1714 18.8487 39.0854 19.9505C39.9994 21.0523 40.4669 22.5305 40.488 24.385C40.5187 24.8278 40.5058 25.2726 40.4494 25.7128C40.4135 26.0918 40.3443 26.4669 40.2425 26.8337C39.8685 28.0622 39.3075 28.9774 38.5711 29.5665C37.886 30.1447 37.0737 30.5524 36.2007 30.7563C35.4384 30.9326 34.662 31.0413 33.8806 31.0813C33.281 31.1105 32.5528 31.1105 31.7077 31.0813V31.4939C32.4453 31.4939 33.1232 31.7791 33.7532 32.3495C34.3818 32.9227 34.9577 33.5514 35.4737 34.2278C35.5228 34.3061 35.7297 34.6018 36.0827 35.1032C36.2603 35.358 36.4567 35.6339 36.6671 35.9389C36.8775 36.244 37.1089 36.5678 37.3555 36.9219C37.6208 37.3146 37.8955 37.7085 38.1737 38.1013C38.3899 38.4169 38.6155 38.7406 38.8423 39.0656C39.3437 39.7832 39.7855 40.4027 40.1502 40.924C40.5149 41.4453 40.7346 41.7492 40.8281 41.8591C41.3182 42.4385 41.8508 42.9808 42.4212 43.4814C43.1056 44.0723 43.8828 44.5462 44.7215 44.884C45.6367 45.2674 46.7179 45.4544 47.9662 45.4544H50.2185V45.0406C49.4838 45.0553 48.754 44.918 48.0749 44.6374C47.4281 44.3635 46.8267 43.9931 46.2912 43.5387Z" fill="#F65364"/>
<path d="M10.6177 42.6212C13.7665 44.3627 17.3338 45.2884 21.3136 45.4264L23.5812 45.4392V45.4521H25.6196V41.9187H25.2129C25.2125 42.3404 25.0486 42.7455 24.7556 43.0487C24.4626 43.352 24.0634 43.5297 23.6419 43.5445C23.1148 43.5819 22.583 43.6077 22.043 43.6077C18.5871 43.5219 15.5509 42.6157 12.9343 40.889C10.3177 39.1622 8.28195 36.7548 6.82714 33.6668C5.36065 30.5803 4.62896 26.9779 4.63208 22.8597C4.63519 18.7416 5.36688 15.1478 6.82714 12.0784C8.28584 9.01766 10.3442 6.63052 13.0021 4.91701C15.66 3.20351 18.7995 2.3487 22.4205 2.3526C26.1257 2.3526 29.3762 3.29039 32.1721 5.16597C34.9679 7.04156 36.8205 9.78909 37.7299 13.4086H38.2874L37.0519 4.70779C35.2426 3.51558 33.1071 2.51156 30.6619 1.71442C28.2167 0.917273 25.4653 0.5 22.4205 0.5C17.8917 0.5 13.9492 1.43779 10.5931 3.31338C7.29433 5.12796 4.58322 7.848 2.77948 11.1527C0.926493 14.5143 0 18.4369 0 22.9205C0 27.4922 0.937792 31.4545 2.81338 34.8075C4.6223 38.0986 7.32873 40.8083 10.6177 42.6212Z" fill="#181D3D"/>
<path d="M17.0989 14.2533C16.4338 14.1246 15.9166 13.8857 15.5473 13.5365C15.1781 13.1874 14.9287 12.6823 14.799 12.0212C14.6686 11.3599 14.567 10.4414 14.4941 9.26562C14.3827 10.442 14.2626 11.3605 14.1338 12.0212C14.005 12.6818 13.7647 13.1869 13.4129 13.5365C13.0617 13.8866 12.5536 14.1255 11.8887 14.2533C11.2238 14.3812 10.3 14.5006 9.11719 14.6116C10.2993 14.6858 11.2231 14.7868 11.8887 14.9146C12.5543 15.0425 13.0624 15.2812 13.4129 15.6308C13.7649 15.981 14.0053 16.4862 14.1338 17.1464C14.2624 17.8066 14.3825 18.7252 14.4941 19.902C14.5677 18.7265 14.6693 17.808 14.799 17.1464C14.9287 16.4849 15.1781 15.9797 15.5473 15.6308C15.9161 15.2825 16.4333 15.0438 17.0989 14.9146C17.7645 14.7855 18.6883 14.6844 19.8704 14.6116C18.6877 14.501 17.7638 14.3816 17.0989 14.2533ZM17.0989 14.2533C16.4338 14.1246 15.9166 13.8857 15.5473 13.5365C15.1781 13.1874 14.9287 12.6823 14.799 12.0212C14.6686 11.3599 14.567 10.4414 14.4941 9.26562C14.3827 10.442 14.2626 11.3605 14.1338 12.0212C14.005 12.6818 13.7647 13.1869 13.4129 13.5365C13.0617 13.8866 12.5536 14.1255 11.8887 14.2533C11.2238 14.3812 10.3 14.5006 9.11719 14.6116C10.2993 14.6858 11.2231 14.7868 11.8887 14.9146C12.5543 15.0425 13.0624 15.2812 13.4129 15.6308C13.7649 15.981 14.0053 16.4862 14.1338 17.1464C14.2624 17.8066 14.3825 18.7252 14.4941 19.902C14.5677 18.7265 14.6693 17.808 14.799 17.1464C14.9287 16.4849 15.1781 15.9797 15.5473 15.6308C15.9161 15.2825 16.4333 15.0438 17.0989 14.9146C17.7645 14.7855 18.6883 14.6844 19.8704 14.6116C18.6877 14.501 17.7638 14.3816 17.0989 14.2533ZM17.0989 14.2533C16.4338 14.1246 15.9166 13.8857 15.5473 13.5365C15.1781 13.1874 14.9287 12.6823 14.799 12.0212C14.6686 11.3599 14.567 10.4414 14.4941 9.26562C14.3827 10.442 14.2626 11.3605 14.1338 12.0212C14.005 12.6818 13.7647 13.1869 13.4129 13.5365C13.0617 13.8866 12.5536 14.1255 11.8887 14.2533C11.2238 14.3812 10.3 14.5006 9.11719 14.6116C10.2993 14.6858 11.2231 14.7868 11.8887 14.9146C12.5543 15.0425 13.0624 15.2812 13.4129 15.6308C13.7649 15.981 14.0053 16.4862 14.1338 17.1464C14.2624 17.8066 14.3825 18.7252 14.4941 19.902C14.5677 18.7265 14.6693 17.808 14.799 17.1464C14.9287 16.4849 15.1781 15.9797 15.5473 15.6308C15.9161 15.2825 16.4333 15.0438 17.0989 14.9146C17.7645 14.7855 18.6883 14.6844 19.8704 14.6116C18.6877 14.501 17.7638 14.3816 17.0989 14.2533Z" fill="#181D3D"/>
</g>
<defs>
<clipPath id="clip0_3284_3933">
<rect width="50.2597" height="45" fill="white" transform="translate(0 0.5)"/>
</clipPath>
</defs>
</svg>
