<svg width="50" height="50" viewBox="0 0 50 50" fill="none" xmlns="http://www.w3.org/2000/svg">
<path d="M38.3638 19.6885C38.104 19.9629 37.6714 19.9707 37.3979 19.7139C37.1265 19.4541 37.1157 19.0215 37.3755 18.748C38.6323 17.4248 38.6323 14.5234 37.3755 13.2002C37.1157 12.9287 37.1265 12.4971 37.3979 12.2373C37.6724 11.9775 38.104 11.9883 38.3638 12.2627C40.1245 14.1133 40.1245 17.8369 38.3638 19.6885ZM12.3511 18.7471C12.6089 19.0215 12.6001 19.4531 12.3257 19.7129C12.0513 19.9707 11.6226 19.9619 11.3628 19.6875C9.59912 17.8359 9.59912 14.1123 11.3628 12.2607C11.6226 11.9863 12.0522 11.9756 12.3257 12.2354C12.6001 12.4951 12.6079 12.9277 12.3511 13.1982C11.0913 14.5234 11.0913 17.4238 12.3511 18.7471ZM10.6675 21.4072C10.8589 21.7334 10.7505 22.1494 10.4263 22.3398C10.1001 22.5312 9.68408 22.4199 9.49365 22.0967C7.41162 18.5537 7.41162 13.3936 9.49365 9.85059C9.68506 9.52637 10.1001 9.41895 10.4263 9.60938C10.7505 9.79785 10.8579 10.2158 10.6675 10.5391C8.84326 13.6455 8.84033 18.3076 10.6675 21.4072ZM40.229 22.0967C40.0405 22.4209 39.6226 22.5312 39.2993 22.3398C38.9751 22.1484 38.8647 21.7334 39.0562 21.4072C40.8833 18.3018 40.8833 13.6475 39.0562 10.5391C38.8647 10.2148 38.9761 9.79688 39.2993 9.60938C39.6235 9.41797 40.0415 9.52637 40.229 9.85059C42.311 13.3906 42.314 18.5615 40.229 22.0967ZM41.8188 24.2031C41.6138 24.5186 41.1929 24.6074 40.8774 24.4023C40.562 24.1973 40.4702 23.7764 40.6753 23.4609C43.3774 19.2949 43.3774 12.6514 40.6753 8.4873C40.4702 8.17188 40.562 7.75098 40.8774 7.5459C41.1929 7.34082 41.6138 7.42969 41.8188 7.74512C44.8188 12.3691 44.8188 19.5752 41.8188 24.2031ZM9.04834 23.4619C9.25342 23.7773 9.16455 24.1982 8.84912 24.4033C8.53369 24.6084 8.10986 24.5195 7.90479 24.2041C4.90674 19.5781 4.90674 12.3701 7.90479 7.74707C8.10986 7.43164 8.53271 7.34277 8.84912 7.54785C9.16455 7.75293 9.25342 8.17383 9.04834 8.48926C6.34619 12.6543 6.34619 19.293 9.04834 23.4619ZM31.3403 32.6826C31.3403 32.6221 31.3491 32.5635 31.3628 32.5078C31.3296 32.3779 31.2603 32.2588 31.1694 32.165C30.7017 31.7002 29.9214 32.043 29.9214 32.6826V38.1777C29.9214 38.5537 29.6138 38.8584 29.2378 38.8584C28.8589 38.8584 28.5542 38.5537 28.5542 38.1777V32.6465C28.5542 32.0898 27.7954 31.6777 27.3081 32.165C27.1753 32.2979 27.0923 32.4805 27.0923 32.6826V38.1777C27.0923 38.5537 26.7876 38.8584 26.4087 38.8584C26.0317 38.8584 25.7251 38.5537 25.7251 38.1777V26.6729C25.7251 26.0361 24.9448 25.6904 24.479 26.1582C24.3462 26.2881 24.2632 26.4707 24.2632 26.6729L24.269 38.6318C24.269 39.0107 23.9644 39.3154 23.5854 39.3154C23.2085 39.3154 22.9048 39.0107 22.9048 38.6318V33.3105C22.8218 33.1777 22.7114 33.0615 22.5806 32.9785C21.9165 32.5469 21.022 33.0312 21.022 33.8311C21.022 36.0098 20.856 38.501 20.8472 40.7158H20.8501C20.8501 44.7549 24.9663 46.1807 28.2104 46.1914V46.1885H28.3765C30.0044 46.1885 31.4771 45.624 32.5396 44.7129C33.5718 43.8271 34.2144 42.6123 34.2144 41.2832V33.9395C34.2144 33.3027 33.4341 32.957 32.9663 33.4248C32.8335 33.5576 32.7505 33.7402 32.7505 33.9395C32.7505 34.0254 32.7368 34.1055 32.7085 34.1807V38.1777C32.7085 38.5537 32.4009 38.8584 32.0249 38.8584C31.646 38.8584 31.3413 38.5537 31.3413 38.1777V32.6826H31.3403ZM19.4849 40.7158C19.4937 38.374 19.6538 36.1982 19.6538 33.8311C19.6538 32.1621 21.3452 31.002 22.895 31.6133V31.3916H20.6919C17.2183 31.3916 14.3804 28.5518 14.3804 25.0771V8.55469C14.3804 5.08105 17.2183 2.24316 20.6919 2.24316H29.0132C32.4849 2.24316 35.3247 5.08105 35.3247 8.55469V25.0781C35.3247 27.5889 33.8325 29.8115 31.6235 30.8223C32.1021 31.0742 32.4702 31.5029 32.6421 32.0186C34.021 31.4121 35.5815 32.4307 35.5815 33.9395V41.2832C35.5815 43.0303 34.7534 44.6074 33.4253 45.748C32.1245 46.8633 30.3364 47.5557 28.3765 47.5557H28.2104V47.5527C24.2134 47.5391 19.4819 45.6182 19.4819 40.7148H19.4849V40.7158ZM22.895 30.0254V29.3779C19.5376 27.9912 18.6265 23.6094 21.2261 21.0098C23.2271 19.0088 26.4741 19.0088 28.479 21.0098C30.9819 23.5117 30.2476 27.7148 27.0923 29.251V30.0264H29.0132C31.7319 30.0264 33.9575 27.7979 33.9575 25.0801V8.55469C33.9575 5.83594 31.7319 3.61035 29.0132 3.61035H20.6919C17.9731 3.61035 15.7476 5.83594 15.7476 8.55469V25.0781C15.7476 27.7969 17.9731 30.0244 20.6919 30.0244H22.895V30.0254ZM22.895 27.8516V26.6719C22.895 24.8203 25.1509 23.8623 26.477 25.1885C26.856 25.5703 27.0913 26.0938 27.0913 26.6719V27.6602C28.9321 26.2959 29.1401 23.6045 27.5122 21.9746C26.0425 20.5078 23.6616 20.5078 22.1919 21.9746C20.4644 23.7021 20.8188 26.5869 22.895 27.8516ZM29.4722 13.751C30.3999 14.3906 30.5327 15.7051 29.73 16.5107C29.4038 16.835 28.9517 17.0391 28.4565 17.0391H21.4282C19.9663 17.0391 19.1001 15.3672 19.978 14.1709C20.0972 14.0078 20.2466 13.8662 20.4126 13.75V11.2119C20.4126 9.34863 21.561 7.69336 23.2612 7.00977C23.311 5.54492 25.0942 4.83984 26.1343 5.87988C26.4253 6.1709 26.6108 6.56934 26.6274 7.00977C28.3247 7.69336 29.4731 9.34863 29.4731 11.2119V13.751H29.4722ZM28.8081 14.9795C28.7583 14.9102 28.689 14.8574 28.6118 14.8271C28.3208 14.75 28.105 14.4844 28.105 14.168V11.2119C28.105 9.76172 27.0864 8.47656 25.7241 8.14453C25.3062 8.05078 25.0542 7.60449 25.2339 7.2002C25.3755 6.88184 24.9653 6.59668 24.7192 6.8457C24.5395 7.02246 24.6606 7.2002 24.689 7.31348C24.7808 7.67871 24.5562 8.04687 24.1909 8.13867C22.7954 8.48144 21.7798 9.75 21.7798 11.2109V14.167C21.7798 14.458 21.5913 14.7266 21.2983 14.8174C20.8276 14.9668 20.936 15.6699 21.4282 15.6699H28.4565C28.8081 15.6719 29.0181 15.2646 28.8081 14.9795Z" fill="#F65364"/>
</svg>
