<svg width="50" height="50" viewBox="0 0 50 50" fill="none" xmlns="http://www.w3.org/2000/svg">
<path d="M21.418 15.4717C21.2109 15.2227 21.2441 14.8535 21.4932 14.6465C21.7422 14.4395 22.1113 14.4727 22.3184 14.7217L22.9951 15.5342L26.0713 11.8105C26.2773 11.5615 26.6465 11.5264 26.8965 11.7324C27.1455 11.9385 27.1816 12.3076 26.9746 12.5576L23.4482 16.8262C23.3369 16.9609 23.1719 17.0381 22.998 17.0391H22.9971C22.8232 17.0391 22.6582 16.9619 22.5469 16.8281L21.418 15.4717ZM27.8223 14.9043H36.4805C36.8037 14.9043 37.0664 14.6416 37.0664 14.3184C37.0664 13.9951 36.8037 13.7324 36.4805 13.7324H27.8223C27.499 13.7324 27.2363 13.9951 27.2363 14.3184C27.2363 14.6416 27.498 14.9043 27.8223 14.9043ZM22.5469 23.7188C22.6582 23.8525 22.8232 23.9297 22.9971 23.9297H22.998C23.1729 23.9297 23.3379 23.8516 23.4482 23.7168L26.9746 19.4482C27.1807 19.1992 27.1455 18.8291 26.8965 18.623C26.6475 18.417 26.2773 18.4521 26.0713 18.7012L22.9951 22.4248L22.3184 21.6123C22.1113 21.3643 21.7422 21.3301 21.4932 21.5371C21.2441 21.7441 21.2109 22.1133 21.418 22.3623L22.5469 23.7188ZM27.8223 21.7959H36.4805C36.8037 21.7959 37.0664 21.5332 37.0664 21.21C37.0664 20.8867 36.8037 20.624 36.4805 20.624H27.8223C27.499 20.624 27.2363 20.8867 27.2363 21.21C27.2363 21.5332 27.498 21.7959 27.8223 21.7959ZM46.4375 27.9014V46.3857C46.4375 47.5703 45.4736 48.5352 44.2881 48.5352H5.71094C4.52637 48.5352 3.56152 47.5713 3.56152 46.3857V27.9014C3.56152 26.7168 4.52539 25.752 5.71094 25.752H10.3115V3.06445C10.3115 2.18262 11.0293 1.46484 11.9102 1.46484H28.166C29.0479 1.46484 29.7646 2.18262 29.7646 3.06445V5.03516H32.2949C33.1748 5.03516 33.8916 5.75098 33.8916 6.63184V8.60449H38.1514C38.998 8.60449 39.6875 9.29394 39.6875 10.1406V25.752H44.2881C45.4736 25.752 46.4375 26.7158 46.4375 27.9014ZM7.27734 29.4043V44.8828H42.7227V29.4043H7.27734ZM38.1523 9.77539H20.1963C19.999 9.77539 19.832 9.94238 19.832 10.1396V28.2324H38.5166V10.1396C38.5166 9.94238 38.3496 9.77539 38.1523 9.77539ZM32.2959 6.20605H16.082C15.8477 6.20605 15.6572 6.39648 15.6572 6.63086V28.2324H18.6592V10.1396C18.6592 9.29297 19.3486 8.60352 20.1953 8.60352H32.7197V6.63086C32.7207 6.39648 32.5303 6.20605 32.2959 6.20605ZM11.4834 3.06445V28.2324H14.4854V6.63086C14.4854 5.75098 15.2012 5.03418 16.082 5.03418H28.5937V3.06445C28.5937 2.8291 28.4023 2.63672 28.167 2.63672H11.9102C11.6748 2.63672 11.4834 2.82812 11.4834 3.06445ZM45.2656 27.9014C45.2656 27.3623 44.8271 26.9238 44.2881 26.9238H39.6875V28.2324H43.3076C43.6309 28.2324 43.8936 28.4951 43.8936 28.8184V45.4688C43.8936 45.792 43.6309 46.0547 43.3076 46.0547H6.69141C6.36816 46.0547 6.10547 45.792 6.10547 45.4688V28.8184C6.10547 28.4951 6.36816 28.2324 6.69141 28.2324H10.3115V26.9238H5.71094C5.17187 26.9238 4.7334 27.3623 4.7334 27.9014V46.3857C4.7334 46.9248 5.17187 47.3633 5.71094 47.3633H44.2891C44.8281 47.3633 45.2666 46.9248 45.2666 46.3857V27.9014H45.2656ZM14.9434 35.8066C15.0537 35.9189 15.2041 35.9824 15.3623 35.9824H34.6377C34.7949 35.9824 34.9463 35.9189 35.0566 35.8066L37.0332 33.7891C37.2598 33.5576 37.2559 33.1865 37.0244 32.96C36.793 32.7334 36.4219 32.7373 36.1963 32.9688L34.3926 34.8115H15.6084L13.8047 32.9688C13.5781 32.7373 13.207 32.7334 12.9766 32.96C12.7451 33.1865 12.7412 33.5576 12.9678 33.7891L14.9434 35.8066Z" fill="#F65364"/>
</svg>
