<svg width="50" height="50" viewBox="0 0 50 50" fill="none" xmlns="http://www.w3.org/2000/svg">
<g clip-path="url(#clip0_3284_4132)">
<path d="M14.274 6.91914L14.0582 9.26191C14.018 9.69766 14.2054 10.1114 14.5594 10.3688C14.9134 10.626 15.3649 10.6764 15.7672 10.5035L17.9285 9.57422L20.0899 10.5036C20.2479 10.5715 20.4135 10.6049 20.5777 10.6049C20.8317 10.6049 21.0826 10.525 21.2976 10.3688C21.6516 10.1114 21.839 9.69766 21.7988 9.26191L21.583 6.91914L23.1348 5.15068C23.4234 4.82168 23.5149 4.37666 23.3797 3.96045C23.2444 3.54414 22.9088 3.23818 22.4819 3.1417L20.1871 2.62295L18.9848 0.600781C18.761 0.224609 18.3662 0 17.9285 0C17.4908 0 17.096 0.224609 16.8722 0.600781L15.6699 2.62305L13.3751 3.1417C12.9481 3.23809 12.6126 3.54424 12.4773 3.96045C12.3421 4.37666 12.4336 4.82158 12.7223 5.15068L14.274 6.91914ZM16.0919 4.02949C16.4194 3.95547 16.7056 3.74746 16.8772 3.45889L17.9286 1.69072L18.98 3.45898C19.1515 3.74756 19.4378 3.95547 19.7653 4.02949L21.7719 4.48311L20.415 6.0293C20.1934 6.28184 20.0842 6.61836 20.115 6.95254L20.3038 9.00107L18.4138 8.18848C18.2596 8.12217 18.0941 8.08906 17.9286 8.08906C17.7631 8.08906 17.5974 8.12217 17.4431 8.18857L15.5532 9.00107L15.742 6.95254C15.7727 6.61816 15.6635 6.28164 15.442 6.02939L14.0851 4.48291L16.0919 4.02949Z" fill="#F65364"/>
<path d="M3.18555 10.5111L4.90342 9.77266L6.62129 10.5111C6.76777 10.5742 6.92109 10.6052 7.07344 10.6052C7.30879 10.6052 7.5414 10.5311 7.74072 10.3862C8.06894 10.1479 8.24267 9.76426 8.20537 9.36025L8.03369 7.49824L9.26709 6.09268C9.53457 5.7877 9.61943 5.37529 9.49414 4.98945C9.36875 4.60371 9.05771 4.32002 8.66201 4.23057L6.83808 3.81836L5.88242 2.21113C5.6751 1.8625 5.30908 1.6543 4.90342 1.6543C4.49775 1.6543 4.13183 1.8625 3.92441 2.21113L2.96885 3.81846L1.14482 4.23066C0.74912 4.32012 0.438085 4.60381 0.312694 4.98955C0.187304 5.37539 0.272167 5.78779 0.539843 6.09287L1.77314 7.49824L1.60156 9.36025C1.56435 9.76426 1.73808 10.1478 2.06631 10.3862C2.39443 10.6247 2.81299 10.6713 3.18555 10.5111ZM2.00234 5.53857L3.42842 5.21631C3.73183 5.14766 3.99707 4.95498 4.15625 4.6875L4.90332 3.43086L5.65068 4.6877C5.80976 4.95508 6.075 5.14775 6.37851 5.21631L7.80449 5.53857L6.84014 6.6375C6.63496 6.87139 6.53369 7.1832 6.56211 7.49326L6.69629 8.94893L5.35312 8.37148C5.06728 8.24863 4.73935 8.24854 4.45351 8.37158L3.11045 8.94902L3.24463 7.49336C3.27314 7.18359 3.17197 6.87178 2.9666 6.6374L2.00234 5.53857Z" fill="#F65364"/>
<path d="M27.1832 7.49824L27.0116 9.36025C26.9744 9.76426 27.1481 10.1478 27.4764 10.3862C27.8046 10.6247 28.223 10.6713 28.5957 10.511L30.3136 9.77256L32.0314 10.5111C32.1778 10.5741 32.3312 10.6051 32.4836 10.6051C32.7189 10.6051 32.9516 10.531 33.1509 10.3861C33.4791 10.1478 33.6528 9.76416 33.6155 9.36016L33.4439 7.49824L34.6773 6.09268C34.9448 5.7877 35.0297 5.37529 34.9044 4.98945C34.779 4.60371 34.468 4.32002 34.0723 4.23057L32.2482 3.81836L31.2925 2.21113C31.0852 1.8625 30.7191 1.6543 30.3135 1.6543C29.9078 1.6543 29.5419 1.8625 29.3346 2.21113L28.379 3.81846L26.555 4.23066C26.1593 4.32012 25.8482 4.60381 25.7229 4.98955C25.5975 5.37539 25.6823 5.78779 25.95 6.09277L27.1832 7.49824ZM28.8386 5.21631C29.142 5.14766 29.4072 4.95498 29.5664 4.6875L30.3135 3.43086L31.0607 4.6877C31.2198 4.95508 31.4852 5.14775 31.7886 5.21631L33.2145 5.53857L32.2502 6.6375C32.045 6.87139 31.9437 7.1832 31.9722 7.49326L32.1063 8.94902L30.7632 8.37148C30.4773 8.24863 30.1494 8.24854 29.8636 8.37158L28.5205 8.94902L28.6547 7.49336C28.6833 7.1835 28.5819 6.87158 28.3766 6.6375L27.4123 5.53857L28.8386 5.21631Z" fill="#F65364"/>
<path d="M49.7435 39.1449C49.7435 38.3454 49.4015 37.6244 48.8561 37.1204C49.4015 36.6164 49.7435 35.8953 49.7435 35.0959C49.7435 33.5758 48.5067 32.339 46.9876 32.339L39.6294 32.3277C39.0705 32.3269 38.6158 31.8714 38.6158 31.3125V26.0843C38.6158 24.7464 37.9401 23.5217 36.8081 22.8083C36.2655 22.4661 35.6098 22.4003 35.0091 22.6276C34.4077 22.8552 33.9593 23.3395 33.7786 23.9562L30.8545 33.9408C30.4799 35.2201 29.2873 36.1135 27.9543 36.1135H26.6867V35.6954C26.6867 34.8485 25.9978 34.1596 25.1509 34.1596H20.3068C19.4599 34.1596 18.7709 34.8485 18.7709 35.6954V40.3987H6.25891C5.6135 40.3987 5.01106 40.1104 4.60618 39.6077C4.2013 39.1051 4.04798 38.4551 4.18548 37.8244C4.78255 35.0867 6.31321 32.6108 8.49544 30.8532C10.6778 29.0955 13.4228 28.1275 16.2249 28.1275H17.6195C21.6775 28.1275 25.5371 29.8817 28.2088 32.9403C28.4749 33.2451 28.9375 33.2762 29.2423 33.0102C29.547 32.744 29.5782 32.2813 29.312 31.9768C27.2149 29.5759 24.4544 27.9038 21.4238 27.1372C23.8201 25.798 25.4449 23.2368 25.4449 20.3021C25.4449 15.987 21.9345 12.4766 17.6196 12.4766C15.8273 12.4766 14.0757 13.0979 12.6873 14.2263C12.3734 14.4813 12.3257 14.9427 12.5809 15.2566C12.8361 15.5704 13.2974 15.6182 13.6112 15.3631C14.7392 14.4463 16.1627 13.9414 17.6196 13.9414C21.1268 13.9414 23.9801 16.7948 23.9801 20.3021C23.9801 23.8093 21.1268 26.6627 17.6196 26.6627C14.1122 26.6627 11.2589 23.8093 11.2589 20.3021C11.2589 19.3384 11.4687 18.4131 11.8824 17.5519C12.0575 17.1873 11.9039 16.7497 11.5393 16.5745C11.1746 16.3994 10.7371 16.553 10.5619 16.9177C10.0524 17.9783 9.79397 19.117 9.79397 20.3021C9.79397 23.0992 11.27 25.5568 13.4832 26.9407C11.3335 27.3788 9.29846 28.3256 7.57659 29.7123C5.13489 31.679 3.42219 34.449 2.75423 37.5122C2.5218 38.5781 2.78089 39.6768 3.46526 40.5264C4.14954 41.3761 5.1678 41.8634 6.25882 41.8634H18.7708V48.0458C18.7708 48.8927 19.4598 49.5816 20.3067 49.5816H25.1508C25.9977 49.5816 26.6866 48.8927 26.6866 48.0458V48.0227H29.0476C30.6411 48.0227 32.1456 48.3256 33.5194 48.9229C35.1149 49.6166 36.8059 49.9683 38.5426 49.9683L46.9865 49.9999C48.5067 49.9999 49.7434 48.7631 49.7434 47.243C49.7434 46.4436 49.4014 45.7226 48.856 45.2186C49.4014 44.7146 49.7434 43.9935 49.7434 43.194C49.7434 42.3946 49.4014 41.6735 48.856 41.1695C49.4014 40.6653 49.7435 39.9442 49.7435 39.1449ZM25.2218 48.0459C25.2218 48.085 25.19 48.1169 25.1508 48.1169H20.3067C20.2675 48.1169 20.2357 48.0851 20.2357 48.0459V35.6953C20.2357 35.6562 20.2675 35.6243 20.3067 35.6243H25.1508C25.19 35.6243 25.2218 35.6562 25.2218 35.6953V48.0459ZM44.5822 37.8527H46.9865C47.6991 37.8527 48.2786 38.4324 48.2786 39.1448C48.2786 39.8572 47.699 40.4368 46.9865 40.4368H44.5822C44.1777 40.4368 43.8497 40.7646 43.8497 41.1692C43.8497 41.5738 44.1777 41.9017 44.5822 41.9017H46.9865C47.6991 41.9017 48.2786 42.4813 48.2786 43.1938C48.2786 43.9062 47.699 44.4858 46.9865 44.4858H44.5822C44.1777 44.4858 43.8497 44.8137 43.8497 45.2183C43.8497 45.6229 44.1777 45.9507 44.5822 45.9507H46.9865C47.6991 45.9507 48.2786 46.5304 48.2786 47.2427C48.2786 47.9552 47.699 48.5348 46.9892 48.5348L38.5452 48.5032C37.0079 48.5032 35.5135 48.1923 34.1033 47.5793C32.5443 46.9014 30.8433 46.5576 29.0476 46.5576H26.6866V37.578H27.9542C29.9333 37.578 31.7039 36.2516 32.2602 34.3523L35.1843 24.3676C35.2346 24.1957 35.3597 24.0607 35.5275 23.9973C35.6945 23.9342 35.8765 23.9522 36.0271 24.0472C36.7309 24.4907 37.151 25.2521 37.151 26.0839V31.3121C37.151 32.6774 38.2618 33.7899 39.6272 33.7922L46.9865 33.8034C47.699 33.8034 48.2785 34.3831 48.2785 35.0955C48.2785 35.8079 47.6989 36.3876 46.9865 36.3876H44.5821C44.1776 36.3876 43.8496 36.7154 43.8496 37.12C43.8496 37.5246 44.1776 37.8527 44.5822 37.8527Z" fill="#F65364"/>
</g>
<defs>
<clipPath id="clip0_3284_4132">
<rect width="50" height="50" fill="white"/>
</clipPath>
</defs>
</svg>
