<svg width="50" height="50" viewBox="0 0 50 50" fill="none" xmlns="http://www.w3.org/2000/svg">
<path d="M24.2188 6.25V4.6875C24.2188 4.25606 24.5686 3.90625 25 3.90625C25.4314 3.90625 25.7812 4.25606 25.7812 4.6875V6.25C25.7812 6.68144 25.4314 7.03125 25 7.03125C24.5686 7.03125 24.2188 6.68144 24.2188 6.25ZM29.9717 8.30956C30.1716 8.30956 30.3715 8.23326 30.5241 8.08067L31.0768 7.52792C31.382 7.22275 31.382 6.72836 31.0768 6.42319C30.7716 6.11801 30.2773 6.11801 29.9721 6.42319L29.4193 6.97594C29.1142 7.28111 29.1142 7.7755 29.4193 8.08067C29.5719 8.23326 29.7718 8.30956 29.9717 8.30956ZM30.4688 12.5C30.4688 12.9314 30.8186 13.2812 31.25 13.2812H32.8125C33.2439 13.2812 33.5938 12.9314 33.5938 12.5C33.5938 12.0686 33.2439 11.7188 32.8125 11.7188H31.25C30.8186 11.7188 30.4688 12.0686 30.4688 12.5ZM29.9721 18.5768C30.1247 18.7294 30.3246 18.8057 30.5244 18.8057C30.7243 18.8057 30.9242 18.7294 31.0768 18.5768C31.382 18.2716 31.382 17.7773 31.0768 17.4721L30.5241 16.9193C30.2189 16.6142 29.7245 16.6142 29.4193 16.9193C29.1142 17.2245 29.1142 17.7189 29.4193 18.0241L29.9721 18.5768ZM25 17.9688C24.5686 17.9688 24.2188 18.3186 24.2188 18.75V20.3125C24.2188 20.7439 24.5686 21.0938 25 21.0938C25.4314 21.0938 25.7812 20.7439 25.7812 20.3125V18.75C25.7812 18.3186 25.4314 17.9688 25 17.9688ZM19.4759 16.9193L18.9232 17.4721C18.618 17.7773 18.618 18.2716 18.9232 18.5768C19.0758 18.7294 19.2757 18.8057 19.4756 18.8057C19.6754 18.8057 19.8753 18.7294 20.0279 18.5768L20.5807 18.0241C20.8858 17.7189 20.8858 17.2245 20.5807 16.9193C20.2755 16.6142 19.7811 16.6142 19.4759 16.9193ZM19.5312 12.5C19.5312 12.0686 19.1814 11.7188 18.75 11.7188H17.1875C16.7561 11.7188 16.4062 12.0686 16.4062 12.5C16.4062 12.9314 16.7561 13.2812 17.1875 13.2812H18.75C19.1814 13.2812 19.5312 12.9314 19.5312 12.5ZM19.4759 8.08067C19.6285 8.23326 19.8284 8.30956 20.0283 8.30956C20.2282 8.30956 20.4281 8.23326 20.5807 8.08067C20.8858 7.7755 20.8858 7.28111 20.5807 6.97594L20.0279 6.42319C19.7227 6.11801 19.2284 6.11801 18.9232 6.42319C18.618 6.72836 18.618 7.22275 18.9232 7.52792L19.4759 8.08067ZM14.0625 12.5C14.0625 6.46896 18.969 1.5625 25 1.5625C31.031 1.5625 35.9375 6.46896 35.9375 12.5C35.9375 18.531 31.031 23.4375 25 23.4375C18.969 23.4375 14.0625 18.531 14.0625 12.5ZM15.625 12.5C15.625 17.6693 19.8307 21.875 25 21.875C30.1693 21.875 34.375 17.6693 34.375 12.5C34.375 7.3307 30.1693 3.125 25 3.125C19.8307 3.125 15.625 7.3307 15.625 12.5ZM25 14.0625C25.139 14.0625 25.2712 14.0385 25.3995 14.0043L26.7914 15.3961C26.944 15.5487 27.1439 15.625 27.3438 15.625C27.5436 15.625 27.7435 15.5487 27.8961 15.3961C28.2013 15.0909 28.2013 14.5966 27.8961 14.2914L26.5043 12.8995C26.5385 12.7712 26.5625 12.639 26.5625 12.5C26.5625 11.9241 26.246 11.4258 25.7812 11.1548V8.59375C25.7812 8.16231 25.4314 7.8125 25 7.8125C24.5686 7.8125 24.2188 8.16231 24.2188 8.59375V11.1548C23.754 11.4258 23.4375 11.9241 23.4375 12.5C23.4375 13.3617 24.1383 14.0625 25 14.0625ZM7.8125 36.7188V35.9375C7.8125 33.7837 9.56497 32.0312 11.7188 32.0312C13.8725 32.0312 15.625 33.7837 15.625 35.9375V36.7188C15.625 38.8725 13.8725 40.625 11.7188 40.625C9.56497 40.625 7.8125 38.8725 7.8125 36.7188ZM9.375 36.7188C9.375 38.0112 10.4263 39.0625 11.7188 39.0625C13.0112 39.0625 14.0625 38.0112 14.0625 36.7188V35.9375C14.0625 34.6451 13.0112 33.5938 11.7188 33.5938C10.4263 33.5938 9.375 34.6451 9.375 35.9375V36.7188ZM15.625 41.4062C15.1936 41.4062 14.8438 41.7561 14.8438 42.1875C14.8438 42.6189 15.1936 42.9688 15.625 42.9688C16.9174 42.9688 17.9688 44.0201 17.9688 45.3125V46.875H5.46875V45.3125C5.46875 44.0201 6.52008 42.9688 7.8125 42.9688C8.24394 42.9688 8.59375 42.6189 8.59375 42.1875C8.59375 41.7561 8.24394 41.4062 7.8125 41.4062C5.65872 41.4062 3.90625 43.1587 3.90625 45.3125V47.6562C3.90625 48.0877 4.25606 48.4375 4.6875 48.4375H18.75C19.1814 48.4375 19.5312 48.0877 19.5312 47.6562V45.3125C19.5312 43.1587 17.7788 41.4062 15.625 41.4062ZM12.7289 41.6351L12.4992 41.8648C12.0846 42.2787 11.3571 42.2825 10.9383 41.8648L10.7086 41.6351C10.4034 41.33 9.90906 41.33 9.60388 41.6351C9.29871 41.9403 9.29871 42.4347 9.60388 42.7399L9.83353 42.9695C10.3367 43.4727 11.0058 43.75 11.7203 43.75C12.4317 43.75 13.1008 43.4727 13.604 42.9695L13.8336 42.7399C14.1388 42.4347 14.1388 41.9403 13.8336 41.6351C13.5284 41.33 13.0341 41.33 12.7289 41.6351ZM38.2812 32.0312C40.435 32.0312 42.1875 33.7837 42.1875 35.9375V36.7188C42.1875 38.8725 40.435 40.625 38.2812 40.625C36.1275 40.625 34.375 38.8725 34.375 36.7188V35.9375C34.375 33.7837 36.1275 32.0312 38.2812 32.0312ZM35.9375 36.7188C35.9375 38.0112 36.9888 39.0625 38.2812 39.0625C39.5737 39.0625 40.625 38.0112 40.625 36.7188V35.9375C40.625 34.6451 39.5737 33.5938 38.2812 33.5938C36.9888 33.5938 35.9375 34.6451 35.9375 35.9375V36.7188ZM42.1875 41.4062C41.7561 41.4062 41.4062 41.7561 41.4062 42.1875C41.4062 42.6189 41.7561 42.9688 42.1875 42.9688C43.4799 42.9688 44.5312 44.0201 44.5312 45.3125V46.875H32.0312V45.3125C32.0312 44.0201 33.0826 42.9688 34.375 42.9688C34.8064 42.9688 35.1562 42.6189 35.1562 42.1875C35.1562 41.7561 34.8064 41.4062 34.375 41.4062C32.2212 41.4062 30.4688 43.1587 30.4688 45.3125V47.6562C30.4688 48.0877 30.8186 48.4375 31.25 48.4375H45.3125C45.7439 48.4375 46.0938 48.0877 46.0938 47.6562V45.3125C46.0938 43.1587 44.3413 41.4062 42.1875 41.4062ZM39.2914 41.6351L39.0617 41.8648C38.6475 42.2787 37.9192 42.2825 37.5008 41.8648L37.2711 41.6351C36.9659 41.33 36.4716 41.33 36.1664 41.6351C35.8612 41.9403 35.8612 42.4347 36.1664 42.7399L36.396 42.9695C36.8992 43.4727 37.5683 43.75 38.2828 43.75C38.9942 43.75 39.6633 43.4727 40.1665 42.9695L40.3961 42.7399C40.7013 42.4347 40.7013 41.9403 40.3961 41.6351C40.0909 41.33 39.5966 41.33 39.2914 41.6351ZM25 32.8125C22.8462 32.8125 21.0938 31.06 21.0938 28.9062V28.125C21.0938 25.9712 22.8462 24.2188 25 24.2188C27.1538 24.2188 28.9062 25.9712 28.9062 28.125V28.9062C28.9062 31.06 27.1538 32.8125 25 32.8125ZM27.3438 28.125C27.3438 26.8326 26.2924 25.7812 25 25.7812C23.7076 25.7812 22.6562 26.8326 22.6562 28.125V28.9062C22.6562 30.1987 23.7076 31.25 25 31.25C26.2924 31.25 27.3438 30.1987 27.3438 28.9062V28.125ZM17.1875 37.5V39.8438C17.1875 40.2752 17.5373 40.625 17.9688 40.625H32.0312C32.4627 40.625 32.8125 40.2752 32.8125 39.8438V37.5C32.8125 35.3462 31.06 33.5938 28.9062 33.5938C28.4748 33.5938 28.125 33.9436 28.125 34.375C28.125 34.8064 28.4748 35.1562 28.9062 35.1562C30.1987 35.1562 31.25 36.2076 31.25 37.5V39.0625H18.75V37.5C18.75 36.2076 19.8013 35.1562 21.0938 35.1562C21.5252 35.1562 21.875 34.8064 21.875 34.375C21.875 33.9436 21.5252 33.5938 21.0938 33.5938C18.94 33.5938 17.1875 35.3462 17.1875 37.5ZM26.0101 33.8226L25.7805 34.0523C25.3658 34.4658 24.6384 34.4704 24.2195 34.0523L23.9899 33.8226C23.6847 33.5175 23.1903 33.5175 22.8851 33.8226C22.58 34.1278 22.58 34.6222 22.8851 34.9274L23.1148 35.157C23.6179 35.6602 24.287 35.9375 25.0015 35.9375C25.713 35.9375 26.3821 35.6602 26.8852 35.157L27.1149 34.9274C27.42 34.6222 27.42 34.1278 27.1149 33.8226C26.8097 33.5175 26.3153 33.5175 26.0101 33.8226Z" fill="#F65364"/>
</svg>
