<svg width="50" height="50" viewBox="0 0 50 50" fill="none" xmlns="http://www.w3.org/2000/svg">
<path d="M42.3814 36.508C37.9276 33.5234 37.7041 27.7326 37.703 27.6961V21.0554C37.7022 18.3583 36.8423 15.7316 35.248 13.5561C33.6537 11.3806 31.4078 9.76955 28.8362 8.95652V6.82129C28.8362 5.84123 28.4468 4.90131 27.7538 4.20831C27.0608 3.5153 26.1209 3.12598 25.1408 3.12598C24.1608 3.12598 23.2209 3.5153 22.5279 4.20831C21.8349 4.90131 21.4455 5.84123 21.4455 6.82129V8.8714C18.802 9.6292 16.4781 11.2292 14.8268 13.4283C13.1756 15.6274 12.2874 18.3055 12.2971 21.0555L12.2975 27.6755C12.2959 27.7335 12.0922 33.5097 7.61913 36.508C7.11924 36.8575 6.74315 37.3566 6.54499 37.9335C6.34682 38.5103 6.33682 39.1352 6.51641 39.7181C6.696 40.301 7.05593 40.8118 7.54437 41.1771C8.03281 41.5424 8.62457 41.7433 9.23446 41.7509L19.183 41.7509C19.4359 43.1867 20.1867 44.4875 21.3034 45.4247C22.4201 46.3619 23.8313 46.8756 25.2892 46.8756C26.7471 46.8756 28.1583 46.3619 29.275 45.4247C30.3918 44.4875 31.1425 43.1867 31.3954 41.7509H40.7655C41.3765 41.7456 41.9699 41.5459 42.4599 41.1809C42.9499 40.8159 43.311 40.3044 43.4909 39.7205C43.6709 39.1366 43.6604 38.5105 43.4609 37.933C43.2614 37.3555 42.8833 36.8564 42.3814 36.508ZM25.1409 4.68811C25.7057 4.69084 26.2467 4.91647 26.6461 5.31595C27.0455 5.71542 27.271 6.25643 27.2737 6.82131V8.56446C25.8645 8.31033 24.4229 8.29312 23.008 8.51354V6.82129C23.0086 6.25576 23.2335 5.71355 23.6333 5.31363C24.0332 4.91371 24.5753 4.68875 25.1409 4.68811ZM25.2892 45.3131C24.2452 45.3148 23.2311 44.964 22.4112 44.3175C21.5914 43.671 21.0137 42.7666 20.7719 41.7509H29.8066C29.5648 42.7667 28.9872 43.671 28.1673 44.3175C27.3475 44.964 26.3334 45.3148 25.2892 45.3131ZM41.7039 39.8016C41.4541 40.049 41.117 40.188 40.7655 40.1884H9.23432C8.95446 40.1909 8.68123 40.1033 8.45502 39.9385C8.2288 39.7737 8.0616 39.5405 7.97812 39.2733C7.89463 39.0062 7.8993 38.7193 7.99143 38.455C8.08356 38.1908 8.25826 37.9631 8.48972 37.8058C13.6258 34.3626 13.8524 27.9868 13.8596 27.6961V21.0555C13.8597 18.1008 15.0334 15.2672 17.1226 13.178C18.1571 12.1435 19.3852 11.3229 20.7368 10.7631C22.0884 10.2032 23.5371 9.91507 25.0001 9.91507C26.4631 9.91507 27.9117 10.2032 29.2633 10.7631C30.6149 11.323 31.843 12.1436 32.8775 13.178C33.912 14.2125 34.7326 15.4406 35.2925 16.7922C35.8523 18.1439 36.1405 19.5925 36.1405 21.0555L36.1405 27.7167C36.1482 27.9868 36.3748 34.3626 41.5108 37.8058C41.6671 37.9149 41.7979 38.0567 41.8941 38.2213C41.9902 38.3859 42.0495 38.5694 42.0679 38.7592C42.0862 38.9489 42.0632 39.1404 42.0004 39.3204C41.9375 39.5004 41.8364 39.6646 41.7039 39.8016Z" fill="#F65364"/>
<path d="M45.9274 9.03226C45.3039 7.6771 44.4177 6.45909 43.3203 5.44874C42.2229 4.43839 40.9359 3.65576 39.5339 3.14618C39.3406 3.07953 39.1289 3.09133 38.9441 3.17907C38.7594 3.2668 38.6165 3.42346 38.5459 3.61542C38.4754 3.80737 38.483 4.01932 38.567 4.20576C38.6511 4.3922 38.8048 4.53826 38.9953 4.61258C41.4265 5.51567 43.4023 7.34295 44.4922 9.69631C45.5821 12.0497 45.6978 14.7384 44.8141 17.1767C44.7784 17.2731 44.7621 17.3755 44.7661 17.4782C44.77 17.5809 44.7942 17.6818 44.8372 17.7751C44.8803 17.8685 44.9413 17.9524 45.0168 18.0221C45.0923 18.0918 45.1808 18.1459 45.2773 18.1813C45.3738 18.2167 45.4763 18.2328 45.579 18.2285C45.6816 18.2243 45.7825 18.1998 45.8757 18.1565C45.9689 18.1132 46.0526 18.052 46.1221 17.9762C46.1916 17.9005 46.2455 17.8119 46.2806 17.7153C46.7988 16.3165 47.0345 14.8288 46.9738 13.3384C46.9132 11.8479 46.5575 10.3843 45.9274 9.03226Z" fill="#F65364"/>
<path d="M37.4189 8.9006C38.7184 9.37985 39.775 10.3548 40.3571 11.6117C40.9391 12.8686 40.9992 14.305 40.524 15.6061C40.4534 15.8009 40.4631 16.0159 40.5509 16.2036C40.6388 16.3913 40.7976 16.5364 40.9925 16.607C41.1873 16.6777 41.4022 16.668 41.59 16.5801C41.7777 16.4923 41.9228 16.3335 41.9934 16.1386C42.6086 14.4497 42.5299 12.5859 41.7744 10.9549C41.0189 9.32399 39.6481 8.05865 37.9621 7.43576C37.768 7.36433 37.5534 7.3728 37.3656 7.45931C37.1777 7.54582 37.0318 7.70332 36.9599 7.89725C36.888 8.09118 36.8959 8.30572 36.9819 8.49381C37.068 8.68191 37.2251 8.8282 37.4189 8.9006Z" fill="#F65364"/>
<path d="M11.0047 4.61233C11.195 4.53787 11.3486 4.39179 11.4325 4.20541C11.5163 4.01904 11.5239 3.80721 11.4534 3.61536C11.3829 3.42352 11.24 3.26693 11.0555 3.17918C10.8709 3.09143 10.6592 3.07952 10.466 3.14599C7.64701 4.19342 5.35616 6.31236 4.09244 9.04122C2.82872 11.7701 2.69453 14.8878 3.7191 17.7151C3.79331 17.9059 3.93941 18.0599 4.12599 18.1441C4.31256 18.2283 4.52472 18.2359 4.71687 18.1654C4.90902 18.0948 5.06581 17.9517 5.15355 17.7667C5.2413 17.5818 5.25298 17.3698 5.1861 17.1764C4.30214 14.7381 4.4177 12.0493 5.50759 9.69591C6.59749 7.3425 8.57337 5.51524 11.0047 4.61233Z" fill="#F65364"/>
<path d="M8.2248 10.955C7.84895 11.7622 7.6362 12.6357 7.59876 13.5254C7.56131 14.415 7.69991 15.3033 8.00659 16.1392C8.04166 16.2356 8.09538 16.3242 8.16468 16.3999C8.23398 16.4756 8.31751 16.5368 8.4105 16.5802C8.50348 16.6236 8.6041 16.6483 8.70661 16.6528C8.80913 16.6573 8.91152 16.6416 9.00796 16.6065C9.10439 16.5714 9.19297 16.5177 9.26865 16.4484C9.34432 16.3791 9.40561 16.2956 9.449 16.2026C9.49239 16.1096 9.51704 16.009 9.52155 15.9065C9.52606 15.804 9.51033 15.7016 9.47526 15.6051C9.00704 14.3038 9.0704 12.8704 9.65162 11.6154C10.2328 10.3604 11.2851 9.38502 12.5805 8.90045C12.7734 8.82742 12.9296 8.68106 13.015 8.4933C13.1004 8.30554 13.1081 8.09162 13.0363 7.89822C12.9646 7.70482 12.8193 7.54764 12.6321 7.46097C12.4449 7.3743 12.2311 7.36519 12.0372 7.43561C11.2013 7.74231 10.4342 8.2111 9.77997 8.81506C9.12573 9.41902 8.59722 10.1463 8.2248 10.955Z" fill="#F65364"/>
</svg>
